<svg width="432" height="306" viewBox="0 0 432 306" fill="none" xmlns="http://www.w3.org/2000/svg">
<rect width="431" height="306" rx="20" fill="white"/>
<path d="M80.3902 151.342V153.949H67.4117V151.342H72.3336V147.885H75.5562V151.342H80.3902ZM73.9449 155.355C77.3141 155.355 79.7164 157.904 79.7164 161.508C79.7164 165.17 77.3141 167.748 73.9449 167.748C70.6051 167.748 68.1441 165.17 68.1734 161.508C68.1441 157.904 70.6051 155.355 73.9449 155.355ZM73.9449 158.051C72.2164 158.051 71.0152 159.428 71.0445 161.508C71.0152 163.646 72.2164 164.994 73.9449 164.965C75.6441 164.994 76.8453 163.646 76.8453 161.508C76.8453 159.428 75.6441 158.051 73.9449 158.051ZM90.234 147.123V173.607H87.1285V160.658H84.5504V172.406H81.5035V147.68H84.5504V158.021H87.1285V147.123H90.234ZM113.716 147.123V153.627H117.378V156.293H113.716V162.592H110.435V147.123H113.716ZM105.073 163.09C110.493 163.09 113.921 165.023 113.95 168.305C113.921 171.645 110.493 173.578 105.073 173.578C99.5949 173.578 96.1086 171.645 96.1086 168.305C96.1086 165.023 99.5949 163.09 105.073 163.09ZM105.073 165.697C101.441 165.697 99.3019 166.605 99.3312 168.305C99.3019 170.033 101.441 170.971 105.073 170.971C108.648 170.971 110.786 170.033 110.786 168.305C110.786 166.605 108.648 165.697 105.073 165.697ZM105.689 148.998V151.635H97.0461V158.285C102.114 158.271 104.942 158.124 108.062 157.465L108.384 160.072C104.956 160.805 101.821 160.922 95.9621 160.922H93.8234V148.998H105.689ZM138.868 147.123V157.67H142.94V160.365H138.868V173.607H135.645V147.123H138.868ZM133.595 151.195V153.803H117.979V151.195H124.249V147.504H127.501V151.195H133.595ZM125.889 155.531C129.698 155.531 132.54 158.109 132.54 161.771C132.54 165.434 129.698 167.982 125.889 167.982C122.022 167.982 119.18 165.434 119.21 161.771C119.18 158.109 122.022 155.531 125.889 155.531ZM125.889 158.197C123.809 158.197 122.315 159.604 122.315 161.771C122.315 163.939 123.809 165.316 125.889 165.287C127.911 165.316 129.405 163.939 129.434 161.771C129.405 159.604 127.911 158.197 125.889 158.197ZM164.899 154.623V157.201H146.559V148.09H149.782V154.623H164.899ZM167.623 160.277V162.855H143.424V160.277H167.623ZM165.075 170.355V172.992H146.325V165.199H149.577V170.355H165.075ZM197.478 147.152V162.621H194.226V159.691H187.927V157.055H194.226V154.213H188.191C186.506 158.432 182.654 161.376 176.882 162.973L175.564 160.395C181.76 158.71 185.056 155.575 185.584 151.635H176.97V148.998H189.129C189.129 149.921 189.055 150.8 188.894 151.635H194.226V147.152H197.478ZM188.718 162.914C194.08 162.914 197.654 164.936 197.654 168.188C197.654 171.439 194.08 173.461 188.718 173.461C183.298 173.461 179.724 171.439 179.724 168.188C179.724 164.936 183.298 162.914 188.718 162.914ZM188.718 165.463C185.144 165.463 182.976 166.43 182.976 168.188C182.976 169.916 185.144 170.883 188.718 170.883C192.205 170.883 194.402 169.916 194.402 168.188C194.402 166.43 192.205 165.463 188.718 165.463ZM222.806 147.123V163.148H219.554V157.67H215.775V154.975H219.554V147.123H222.806ZM222.806 164.35V173.285H205.198V164.35H222.806ZM208.45 166.928V170.648H219.612V166.928H208.45ZM216.214 149.584V152.221H200.687V149.584H206.839V146.918H210.062V149.584H216.214ZM208.45 153.246C212.142 153.246 214.72 155.209 214.749 157.992C214.72 160.863 212.142 162.738 208.45 162.738C204.788 162.738 202.181 160.863 202.181 157.992C202.181 155.209 204.788 153.246 208.45 153.246ZM208.45 155.707C206.546 155.707 205.286 156.586 205.286 157.992C205.286 159.457 206.546 160.307 208.45 160.307C210.355 160.307 211.614 159.457 211.614 157.992C211.614 156.586 210.355 155.707 208.45 155.707ZM247.987 147.123V173.637H244.706V147.123H247.987ZM233.72 149.057C237.704 149.057 240.604 152.689 240.634 158.402C240.604 164.174 237.704 167.777 233.72 167.777C229.706 167.777 226.805 164.174 226.805 158.402C226.805 152.689 229.706 149.057 233.72 149.057ZM233.72 151.986C231.464 151.986 229.94 154.359 229.94 158.402C229.94 162.475 231.464 164.848 233.72 164.848C235.946 164.848 237.47 162.475 237.47 158.402C237.47 154.359 235.946 151.986 233.72 151.986ZM263.809 162.621V165.463H267.295V162.621H270.312V171.029C273.418 169.726 274.854 167.045 274.854 164.525V162.416H278.105V164.525C278.105 167.279 279.512 169.945 282.793 171.059L281.123 173.49C278.794 172.655 277.285 171.044 276.465 169.037C275.571 170.985 274.062 172.597 271.865 173.49L270.312 171.176V173.285H260.762V162.621H263.809ZM263.809 170.795H267.295V167.895H263.809V170.795ZM265.156 148.207C268.569 148.207 271.265 150.111 271.953 152.982H276.729V147.123H279.98V161.156H276.729V155.678H271.953C271.309 158.622 268.584 160.57 265.156 160.57C261.084 160.57 258.154 158.021 258.154 154.359C258.154 150.727 261.084 148.207 265.156 148.207ZM265.156 150.902C262.871 150.902 261.26 152.25 261.26 154.359C261.26 156.498 262.871 157.904 265.156 157.904C267.383 157.904 268.965 156.498 268.994 154.359C268.965 152.25 267.383 150.902 265.156 150.902ZM289.254 163.002V165.521H300.914V163.002H304.166V173.285H286.031V163.002H289.254ZM289.254 170.707H300.914V168.012H289.254V170.707ZM307.271 158.842V161.508H283.13V158.842H307.271ZM296.871 148.412C296.871 151.254 300.504 154.242 305.982 154.887L304.839 157.465C300.401 156.864 296.9 154.901 295.201 152.221C293.487 154.916 289.971 156.864 285.562 157.465L284.361 154.887C289.898 154.213 293.502 151.342 293.531 148.412V147.416H296.871V148.412ZM330.548 147.123V173.607H327.325V147.123H330.548ZM313.204 149.701V164.174C316.925 164.115 320.88 163.778 324.952 162.973L325.362 165.697C320.704 166.664 316.368 166.957 312.267 166.957H309.982V149.701H313.204ZM354.528 147.123V157.172H358.6V159.838H354.528V173.637H351.276V147.123H354.528ZM347.262 149.643V152.279H338.122V164.438C342.238 164.438 345.49 164.232 349.137 163.588L349.518 166.342C345.417 167.045 341.843 167.162 337.067 167.162H334.87V149.643H347.262ZM362.336 171.234C361.077 171.234 360.051 170.209 360.051 168.949C360.051 167.719 361.077 166.693 362.336 166.693C363.538 166.693 364.592 167.719 364.592 168.949C364.592 170.209 363.538 171.234 362.336 171.234Z" fill="#7F7F7F"/>
<path d="M113.715 196.238V206.668H112.172V204.324H107.562V203.055H112.172V200.711H107.738C106.596 203.504 103.91 205.525 100.199 206.629L99.5547 205.418C103.754 204.168 106.361 201.824 106.684 198.816H100.434V197.527H108.344C108.344 198.211 108.266 198.865 108.129 199.48H112.172V196.238H113.715ZM108.031 206.844C111.547 206.844 113.812 208.094 113.812 210.164C113.812 212.254 111.547 213.504 108.031 213.504C104.477 213.504 102.23 212.254 102.23 210.164C102.23 208.094 104.477 206.844 108.031 206.844ZM108.031 208.074C105.414 208.055 103.734 208.855 103.734 210.164C103.734 211.473 105.414 212.254 108.031 212.254C110.609 212.254 112.27 211.473 112.289 210.164C112.27 208.855 110.609 208.055 108.031 208.074ZM130.6 196.219V206.746H129.057V202.781H126.108V201.512H129.057V196.219H130.6ZM130.6 207.684V213.348H119.252V207.684H130.6ZM120.776 208.914V212.098H129.096V208.914H120.776ZM126.362 198.055V199.305H116.225V198.055H120.541V196.062H122.045V198.055H126.362ZM121.284 200.203C123.647 200.203 125.307 201.473 125.327 203.289C125.307 205.164 123.647 206.395 121.284 206.395C118.92 206.395 117.26 205.164 117.26 203.289C117.26 201.473 118.92 200.203 121.284 200.203ZM121.284 201.395C119.78 201.395 118.725 202.176 118.725 203.289C118.725 204.441 119.78 205.203 121.284 205.223C122.787 205.203 123.842 204.441 123.842 203.289C123.842 202.176 122.787 201.395 121.284 201.395ZM152.066 196.219V213.582H150.523V196.219H152.066ZM146.929 198.113C146.909 203.113 144.585 207.527 138.765 210.32L137.925 209.07C142.622 206.844 145.015 203.514 145.366 199.363H138.726V198.113H146.929ZM170.474 205.789V207.059H154.576V205.789H161.763V203.953H156.646V199.715H166.88V197.918H156.587V196.668H168.423V200.867H158.17V202.723H168.795V203.953H163.267V205.789H170.474ZM168.521 208.387V213.426H166.978V209.637H156.353V208.387H168.521ZM179.391 196.531C183.258 196.531 185.523 197.586 185.523 199.52C185.523 201.492 183.258 202.547 179.391 202.566C175.523 202.547 173.238 201.492 173.238 199.52C173.238 197.586 175.523 196.531 179.391 196.531ZM179.391 197.684C176.5 197.684 174.82 198.387 174.84 199.52C174.82 200.73 176.5 201.395 179.391 201.395C182.262 201.395 183.961 200.73 183.961 199.52C183.961 198.387 182.262 197.684 179.391 197.684ZM187.301 203.738V204.988H171.48V203.738H187.301ZM185.27 206.492V210.379H174.957V212.176H185.797V213.387H173.434V209.246H183.766V207.664H173.395V206.492H185.27ZM208.805 206.727V208.016H201.637V213.621H200.134V208.016H192.985V206.727H208.805ZM201.657 199.656C201.657 201.824 204.684 203.719 207.79 204.148L207.223 205.379C204.538 204.969 202.009 203.621 200.915 201.727C199.802 203.641 197.233 204.969 194.548 205.379L193.981 204.148C197.067 203.719 200.134 201.844 200.134 199.656V199.637H194.528V198.387H200.134V196.219H201.637V198.387H207.282V199.637H201.657V199.656ZM223.308 196.219V203.289H226.12V204.578H223.308V213.582H221.784V196.219H223.308ZM218.816 198.094C218.816 203.016 216.511 207.488 210.847 210.281L209.988 209.07C214.48 206.834 216.921 203.494 217.273 199.383H210.788V198.094H218.816ZM240.193 196.219V203.387H243.103V204.656H240.193V213.582H238.67V196.219H240.193ZM236.99 199.012V200.281H226.658V199.012H231.13V196.434H232.654V199.012H236.99ZM231.912 201.727C234.373 201.727 236.15 203.367 236.17 205.711C236.15 208.055 234.373 209.695 231.912 209.695C229.431 209.695 227.634 208.055 227.654 205.711C227.634 203.367 229.431 201.727 231.912 201.727ZM231.912 203.016C230.291 203.016 229.099 204.148 229.119 205.711C229.099 207.293 230.291 208.406 231.912 208.387C233.513 208.406 234.685 207.293 234.705 205.711C234.685 204.148 233.513 203.016 231.912 203.016ZM248.309 197.566C249.9 197.576 251.189 198.504 251.941 200.105H256.512V196.219H258.035V213.621H256.512V206.883H252.059C251.326 208.641 249.988 209.656 248.309 209.656C245.75 209.656 243.953 207.312 243.953 203.621C243.953 199.93 245.75 197.586 248.309 197.566ZM248.309 198.934C246.59 198.953 245.418 200.789 245.418 203.621C245.418 206.453 246.59 208.289 248.309 208.289C250.008 208.289 251.199 206.453 251.199 203.621C251.199 200.789 250.008 198.953 248.309 198.934ZM252.391 201.395C252.547 202.068 252.645 202.811 252.645 203.621C252.645 204.334 252.566 205.008 252.449 205.613H256.512V201.395H252.391ZM281.044 210.047V211.355H265.145V210.047H281.044ZM279.52 197.977V199.246H276.766V205.32H279.481V206.57H266.591V205.32H269.305V199.246H266.552V197.977H279.52ZM270.829 205.32H275.263V199.246H270.829V205.32ZM297.929 210.145V211.434H282.03V210.145H289.179V206.863H284.023V201.512H294.413V198.777H283.984V197.508H295.917V202.762H285.546V205.594H296.327V206.863H290.683V210.145H297.929ZM310.283 196.609V206.688H308.798V201.98H306.142V200.711H308.798V196.609H310.283ZM304.052 199.949C304.052 201.844 305.322 203.895 307.529 204.812L306.728 205.984C305.097 205.301 303.955 204.002 303.369 202.508C302.754 204.197 301.543 205.652 299.814 206.414L298.994 205.203C301.259 204.246 302.568 202.02 302.568 199.949V198.914H299.326V197.645H307.119V198.914H304.052V199.949ZM313.662 196.219V206.844H312.197V196.219H313.662ZM313.662 207.605V213.582H312.158V208.855H301.962V207.605H313.662ZM329.863 205.613V206.863H317.852V197.723H329.668V199.012H319.414V201.59H329.297V202.82H319.414V205.613H329.863ZM331.699 210.047V211.316H315.801V210.047H331.699ZM120.795 223.566C123.354 223.586 125.17 225.93 125.19 229.621C125.17 233.312 123.354 235.656 120.795 235.656C118.217 235.656 116.42 233.312 116.42 229.621C116.42 225.93 118.217 223.586 120.795 223.566ZM120.795 224.934C119.077 224.953 117.866 226.789 117.866 229.621C117.866 232.453 119.077 234.289 120.795 234.289C122.534 234.289 123.705 232.453 123.705 229.621C123.705 226.789 122.534 224.953 120.795 224.934ZM129.584 222.219V229.152H132.495V230.48H129.584V239.582H128.061V222.219H129.584ZM142.036 224.035C142.016 229.055 140.317 233.645 134.067 236.711L133.208 235.539C136.479 233.957 138.442 231.945 139.497 229.602L133.54 230.168L133.286 228.82L139.966 228.371C140.268 227.395 140.444 226.369 140.512 225.305H134.165V224.035H142.036ZM146.47 222.219V229.289H149.282V230.578H146.47V239.582H144.946V222.219H146.47ZM164.234 222.219V239.621H162.691V222.219H164.234ZM154.995 223.566C157.573 223.586 159.429 225.93 159.429 229.621C159.429 233.312 157.573 235.656 154.995 235.656C152.398 235.656 150.562 233.312 150.562 229.621C150.562 225.93 152.398 223.586 154.995 223.566ZM154.995 224.934C153.257 224.953 152.046 226.789 152.046 229.621C152.046 232.453 153.257 234.289 154.995 234.289C156.734 234.289 157.945 232.453 157.945 229.621C157.945 226.789 156.734 224.953 154.995 224.934ZM169.244 223.312V226.008H174.361V223.312H175.884V231.359H167.72V223.312H169.244ZM169.244 230.09H174.361V227.219H169.244V230.09ZM181.138 222.238V232.766H179.615V222.238H181.138ZM175.337 233.078C178.97 233.098 181.177 234.27 181.197 236.34C181.177 238.371 178.97 239.543 175.337 239.543C171.685 239.543 169.478 238.371 169.478 236.34C169.478 234.27 171.685 233.098 175.337 233.078ZM175.337 234.289C172.623 234.289 171.021 235.051 171.021 236.34C171.021 237.57 172.623 238.332 175.337 238.332C178.033 238.332 179.673 237.57 179.673 236.34C179.673 235.051 178.033 234.289 175.337 234.289ZM191.598 222.531C195.465 222.531 197.73 223.586 197.73 225.52C197.73 227.492 195.465 228.547 191.598 228.566C187.73 228.547 185.445 227.492 185.445 225.52C185.445 223.586 187.73 222.531 191.598 222.531ZM191.598 223.684C188.707 223.684 187.027 224.387 187.047 225.52C187.027 226.73 188.707 227.395 191.598 227.395C194.469 227.395 196.168 226.73 196.168 225.52C196.168 224.387 194.469 223.684 191.598 223.684ZM199.508 229.738V230.988H183.688V229.738H199.508ZM197.477 232.492V236.379H187.164V238.176H198.004V239.387H185.641V235.246H195.973V233.664H185.602V232.492H197.477ZM211.364 226.887C211.345 230.051 213.512 233.254 216.071 234.406L215.134 235.617C213.161 234.65 211.452 232.609 210.622 230.129C209.811 232.756 208.102 234.943 206.071 235.969L205.095 234.68C207.673 233.488 209.821 230.188 209.841 226.887V223.723H211.364V226.887ZM219.509 222.219V239.621H217.966V222.219H219.509ZM227.956 225.441C227.956 227.746 229.655 229.855 232.234 230.754L231.452 231.945C229.47 231.242 227.956 229.816 227.214 228.02C226.472 229.992 224.88 231.525 222.839 232.277L222.019 231.086C224.616 230.168 226.433 227.922 226.452 225.441V224.699H222.487V223.449H231.862V224.699H227.956V225.441ZM235.652 222.219V226.809H238.269V228.117H235.652V232.688H234.128V222.219H235.652ZM235.652 233.605V239.582H234.128V234.855H224.284V233.605H235.652ZM247.634 225.227V226.477H238.923V225.227H242.537V222.746H244.06V225.227H247.634ZM243.279 227.648C245.466 227.648 247.029 229.289 247.048 231.594C247.029 233.918 245.466 235.578 243.279 235.578C241.111 235.578 239.548 233.918 239.548 231.594C239.548 229.289 241.111 227.648 243.279 227.648ZM243.279 228.938C241.912 228.957 240.916 230.07 240.916 231.594C240.916 233.137 241.912 234.25 243.279 234.23C244.666 234.25 245.681 233.137 245.681 231.594C245.681 230.07 244.666 228.957 243.279 228.938ZM253.748 222.219V239.582H252.283V230.812H249.978V238.723H248.533V222.648H249.978V229.543H252.283V222.219H253.748ZM276.366 236.086V237.355H260.467V236.086H267.616V232.336H262.342V223.449H263.885V226.594H272.909V223.449H274.413V232.336H269.12V236.086H276.366ZM263.885 231.086H272.909V227.844H263.885V231.086ZM282.509 227.16C282.509 229.914 283.856 232.902 286.161 234.27L285.282 235.461C283.612 234.445 282.411 232.59 281.805 230.48C281.161 232.785 279.872 234.768 278.134 235.832L277.157 234.68C279.559 233.273 281.024 230.188 281.024 227.219V223.859H282.509V227.16ZM292.235 222.219V239.582H290.751V222.219H292.235ZM288.641 222.59V238.703H287.196V229.758H284.247V228.449H287.196V222.59H288.641ZM310.136 236.066V237.355H294.237V236.066H298.183V231.379C296.698 230.607 295.8 229.357 295.8 227.785C295.8 225.09 298.437 223.332 302.148 223.312C305.859 223.332 308.495 225.09 308.495 227.785C308.495 229.328 307.626 230.568 306.191 231.34V236.066H310.136ZM302.148 224.582C299.296 224.562 297.284 225.852 297.284 227.785C297.284 229.719 299.296 231.027 302.148 231.027C304.98 231.027 307.011 229.719 307.011 227.785C307.011 225.852 304.98 224.562 302.148 224.582ZM299.687 236.066H304.648V231.926C303.896 232.131 303.056 232.238 302.148 232.238C301.259 232.238 300.429 232.141 299.687 231.945V236.066ZM313.935 223.859L313.798 234.016H312.158L312.021 223.859H313.935ZM312.978 238.117C312.295 238.117 311.709 237.551 311.728 236.848C311.709 236.164 312.295 235.598 312.978 235.598C313.662 235.598 314.228 236.164 314.228 236.848C314.228 237.551 313.662 238.117 312.978 238.117Z" fill="#7F7F7F"/>
<path d="M186 82.5H249" stroke="#DCDCDC" stroke-width="4" stroke-linecap="round"/>
<path d="M217.5 51L217.5 114" stroke="#DCDCDC" stroke-width="4" stroke-linecap="round"/>
</svg>
