<svg width="126" height="128" viewBox="0 0 126 128" fill="none" xmlns="http://www.w3.org/2000/svg">
<path d="M125.982 52.6818C125.982 40.8556 125.982 29.0152 125.982 17.189C125.982 15.0721 124.345 12.8988 122.228 12.8988H42.1821C41.0814 7.02801 39.4443 0.0846747 36.015 0H6.61874C3.09063 0.0141125 0.0423357 3.41522 0.0423357 6.94333C0.0141107 10.2315 0 13.5339 0 16.8503C0 16.9208 0 17.1749 0 17.2454V124.176C0 126.292 1.90518 128 4.00794 128H122.228C122.524 128 123.837 127.915 124.938 126.857C126.052 125.77 125.968 124.415 125.982 124.119C125.954 109.597 125.968 95.0897 125.982 80.568L114.381 68.9676C113.097 67.6834 113.097 65.5665 114.381 64.2823L125.996 52.6677L125.982 52.6818ZM9.89283 26.4044C9.89283 24.5839 11.3887 23.088 13.2093 23.088H65.5383C76.2355 23.088 84.9993 31.8377 84.9993 42.5491C84.9993 53.5286 76.0097 62.5182 65.0302 62.5182H31.7671C19.7433 62.5182 9.89283 52.6818 9.89283 40.6439V26.4044ZM114.706 97.0937V114.819C114.706 116.639 113.21 118.135 111.39 118.135H33.4183C22.7211 118.135 13.9572 109.386 13.9572 98.6743C13.9572 87.6948 22.9469 78.7052 33.9263 78.7052H96.3175C106.422 78.7052 114.692 86.9751 114.692 97.0796L114.706 97.0937Z" fill="#196E4B"/>
<path d="M22.9753 38.4422H46.0773C47.4886 38.4422 48.6317 37.2991 48.6317 35.8878C48.6317 34.4766 47.4886 33.3335 46.0773 33.3335H22.9753C21.564 33.3335 20.4209 34.4766 20.4209 35.8878C20.4209 37.2991 21.564 38.4422 22.9753 38.4422Z" fill="#196E4B"/>
<path d="M22.9753 51.2425H71.635C73.0463 51.2425 74.1894 50.0994 74.1894 48.6881C74.1894 47.2769 73.0463 46.1338 71.635 46.1338H22.9753C21.564 46.1338 20.4209 47.2769 20.4209 48.6881C20.4209 50.0994 21.564 51.2425 22.9753 51.2425Z" fill="#196E4B"/>
</svg>
