<svg width="126" height="128" viewBox="0 0 126 128" fill="none" xmlns="http://www.w3.org/2000/svg">
<g id="Frame 1">
<g id="Group">
<g id="Group 1">
<path id="Vector" d="M110.989 55.5579C110.989 46.4533 110.989 37.3378 110.989 28.2332C110.989 26.6035 109.729 24.9303 108.099 24.9303H46.4746C45.6271 20.4106 44.3668 15.0652 41.7267 15H19.0955C16.3794 15.0109 14.0326 17.6293 14.0326 20.3454C14.0109 22.8769 14 25.4192 14 27.9724C14 28.0268 14 28.2223 14 28.2767V110.598C14 112.228 15.4667 113.543 17.0856 113.543H108.099C108.327 113.543 109.338 113.478 110.185 112.663C111.043 111.826 110.978 110.783 110.989 110.555C110.967 99.3752 110.978 88.2063 110.989 77.0265L102.058 68.0958C101.07 67.1071 101.07 65.4774 102.058 64.4887L111 55.547L110.989 55.5579ZM21.6161 35.3278C21.6161 33.9263 22.7678 32.7746 24.1694 32.7746H64.4556C72.6911 32.7746 79.4381 39.5108 79.4381 47.7571C79.4381 56.2098 72.5172 63.1306 64.0645 63.1306H38.4564C29.1997 63.1306 21.6161 55.5579 21.6161 46.2903V35.3278ZM102.308 89.7491V103.395C102.308 104.797 101.157 105.948 99.755 105.948H39.7276C31.4922 105.948 24.7452 99.2122 24.7452 90.9659C24.7452 82.5132 31.666 75.5924 40.1187 75.5924H88.1515C95.9307 75.5924 102.297 81.9591 102.297 89.7382L102.308 89.7491Z" fill="#196E4B"/>
<path id="Vector_2" d="M31.6877 44.5951H49.4732C50.5597 44.5951 51.4397 43.7151 51.4397 42.6286C51.4397 41.5421 50.5597 40.6621 49.4732 40.6621H31.6877C30.6012 40.6621 29.7212 41.5421 29.7212 42.6286C29.7212 43.7151 30.6012 44.5951 31.6877 44.5951Z" fill="#196E4B"/>
<path id="Vector_3" d="M31.6877 54.4501H69.1492C70.2356 54.4501 71.1157 53.5701 71.1157 52.4836C71.1157 51.3971 70.2356 50.5171 69.1492 50.5171H31.6877C30.6012 50.5171 29.7212 51.3971 29.7212 52.4836C29.7212 53.5701 30.6012 54.4501 31.6877 54.4501Z" fill="#196E4B"/>
</g>
</g>
</g>
</svg>
