<svg width="396" height="316" viewBox="0 0 396 316" fill="none" xmlns="http://www.w3.org/2000/svg">
<rect x="5" y="9.55469" width="384" height="236.568" rx="20" fill="#7F7F7F"/>
<g filter="url(#filter0_d_1431_9739)">
<path fill-rule="evenodd" clip-rule="evenodd" d="M15 9.55469C9.47715 9.55469 5 14.0318 5 19.5547V61.4963V63.4379V293C5 304.046 13.9543 313 25 313H369C380.046 313 389 304.046 389 293V61.4963C389 50.4506 380.046 41.4963 369 41.4963H130.095L123.229 16.8692C122.024 12.5455 118.085 9.55469 113.596 9.55469H15Z" fill="white"/>
</g>
<path fill-rule="evenodd" clip-rule="evenodd" d="M307.38 53.4722C306.564 49.9892 305.75 46.511 304.883 43.0631L304.876 43.061C304.154 40.1893 303.36 37.3099 302.565 34.4226C300.908 28.4071 299.241 22.3575 298.184 16.273C296.446 6.274 306.114 -2.62817 315.964 2.49372C320.061 4.62371 321.332 6.71219 322.107 9.5436H319.75C319.124 7.71028 317.933 6.31798 314.648 4.69262C310.612 2.69227 304.723 3.9424 302.062 7.64265C299.501 11.2075 300.589 15.5367 301.572 19.4491L301.572 19.4497L308.36 46.406C309.088 49.2998 309.804 52.1973 310.52 55.0951C311.994 61.06 313.469 67.0262 315.047 72.9643C315.657 75.2595 316.374 76.9515 318.837 78.1819C324.531 81.0256 331.218 76.6342 330.095 70.4585C329.168 65.3544 327.769 60.2728 326.377 55.2176C325.689 52.7189 325.003 50.2265 324.377 47.7412C323.725 45.154 323.129 42.5254 322.532 39.8886C321.333 34.5993 320.127 29.2769 318.448 24.19C316.486 18.2575 307.159 19.851 307.296 26.1905C307.333 27.8174 307.843 29.5127 308.333 31.1438C308.533 31.8096 308.73 32.4647 308.89 33.1002C309.947 37.3002 311.005 41.5012 312.063 45.7022C313.121 49.9033 314.179 54.1044 315.236 58.3044C315.637 59.9027 313.15 60.5272 312.749 58.9289C311.892 55.5296 310.95 52.1218 310.005 48.7055C308.102 41.8258 306.19 34.9117 304.95 27.9632C303.183 18.0212 318.032 13.5307 320.931 23.5676C322.862 30.2502 324.491 37.0452 326.116 43.8297C326.921 47.1882 327.725 50.5441 328.565 53.8826C328.951 55.4139 329.338 56.9453 329.726 58.4771C330.563 61.7862 331.401 65.0968 332.222 68.4105C332.857 70.9733 333.278 73.4799 332.14 76.0112C328.355 84.4368 315.297 82.6356 312.769 74.3805C310.671 67.5305 309.023 60.4915 307.38 53.4722Z" fill="#676767"/>
<defs>
<filter id="filter0_d_1431_9739" x="0" y="0.554688" width="396" height="315.445" filterUnits="userSpaceOnUse" color-interpolation-filters="sRGB">
<feFlood flood-opacity="0" result="BackgroundImageFix"/>
<feColorMatrix in="SourceAlpha" type="matrix" values="0 0 0 0 0 0 0 0 0 0 0 0 0 0 0 0 0 0 127 0" result="hardAlpha"/>
<feOffset dx="1" dy="-3"/>
<feGaussianBlur stdDeviation="3"/>
<feComposite in2="hardAlpha" operator="out"/>
<feColorMatrix type="matrix" values="0 0 0 0 0 0 0 0 0 0 0 0 0 0 0 0 0 0 0.1 0"/>
<feBlend mode="normal" in2="BackgroundImageFix" result="effect1_dropShadow_1431_9739"/>
<feBlend mode="normal" in="SourceGraphic" in2="effect1_dropShadow_1431_9739" result="shape"/>
</filter>
</defs>
</svg>
