<svg width="438" height="350" viewBox="0 0 438 350" fill="none" xmlns="http://www.w3.org/2000/svg">
<g filter="url(#filter0_d_1266_8654)">
<path fill-rule="evenodd" clip-rule="evenodd" d="M15 5C9.47715 5 5 9.47715 5 15V60.579V66.1579V323C5 334.046 13.9543 343 25 343H411C422.046 343 431 334.046 431 323V60.5789C431 49.5333 422.046 40.5789 411 40.5789H143.777L135.932 12.3246C134.73 7.99587 130.789 5 126.296 5H15Z" fill="white"/>
<path fill-rule="evenodd" clip-rule="evenodd" d="M52.6289 68.0157C52.6289 66.7083 53.6679 65.6484 54.9495 65.6484H75.8348C77.1165 65.6484 78.1554 66.7083 78.1554 68.0157C78.1554 69.3231 77.1165 70.383 75.8348 70.383H54.9495C53.6679 70.383 52.6289 69.3231 52.6289 68.0157ZM52.6289 79.8521C52.6289 78.5447 53.6679 77.4849 54.9495 77.4849H99.0407C100.322 77.4849 101.361 78.5447 101.361 79.8521C101.361 81.1596 100.322 82.2194 99.0407 82.2194H54.9495C53.6679 82.2194 52.6289 81.1596 52.6289 79.8521Z" fill="white"/>
<path fill-rule="evenodd" clip-rule="evenodd" d="M52.6289 68.0157C52.6289 66.7083 53.6679 65.6484 54.9495 65.6484H75.8348C77.1165 65.6484 78.1554 66.7083 78.1554 68.0157C78.1554 69.3231 77.1165 70.383 75.8348 70.383H54.9495C53.6679 70.383 52.6289 69.3231 52.6289 68.0157ZM52.6289 79.8521C52.6289 78.5447 53.6679 77.4849 54.9495 77.4849H99.0407C100.322 77.4849 101.361 78.5447 101.361 79.8521C101.361 81.1596 100.322 82.2194 99.0407 82.2194H54.9495C53.6679 82.2194 52.6289 81.1596 52.6289 79.8521Z" fill="white"/>
<path fill-rule="evenodd" clip-rule="evenodd" d="M52.3633 91.8673C52.3633 90.5599 53.4022 89.5 54.6839 89.5H98.7751C100.057 89.5 101.096 90.5599 101.096 91.8673C101.096 93.1747 100.057 94.2346 98.7751 94.2346H54.6839C53.4022 94.2346 52.3633 93.1747 52.3633 91.8673Z" fill="white"/>
<path fill-rule="evenodd" clip-rule="evenodd" d="M52.3633 91.8673C52.3633 90.5599 53.4022 89.5 54.6839 89.5H98.7751C100.057 89.5 101.096 90.5599 101.096 91.8673C101.096 93.1747 100.057 94.2346 98.7751 94.2346H54.6839C53.4022 94.2346 52.3633 93.1747 52.3633 91.8673Z" fill="white"/>
</g>
<path d="M56.0625 229.342V231.949H43.084V229.342H48.0059V225.885H51.2285V229.342H56.0625ZM49.6172 233.355C52.9863 233.355 55.3887 235.904 55.3887 239.508C55.3887 243.17 52.9863 245.748 49.6172 245.748C46.2773 245.748 43.8164 243.17 43.8457 239.508C43.8164 235.904 46.2773 233.355 49.6172 233.355ZM49.6172 236.051C47.8887 236.051 46.6875 237.428 46.7168 239.508C46.6875 241.646 47.8887 242.994 49.6172 242.965C51.3164 242.994 52.5176 241.646 52.5176 239.508C52.5176 237.428 51.3164 236.051 49.6172 236.051ZM65.9062 225.123V251.607H62.8008V238.658H60.2227V250.406H57.1758V225.68H60.2227V236.021H62.8008V225.123H65.9062ZM89.3883 225.123V231.627H93.0504V234.293H89.3883V240.592H86.107V225.123H89.3883ZM80.7457 241.09C86.1656 241.09 89.5934 243.023 89.6227 246.305C89.5934 249.645 86.1656 251.578 80.7457 251.578C75.2672 251.578 71.7809 249.645 71.7809 246.305C71.7809 243.023 75.2672 241.09 80.7457 241.09ZM80.7457 243.697C77.1129 243.697 74.9742 244.605 75.0035 246.305C74.9742 248.033 77.1129 248.971 80.7457 248.971C84.3199 248.971 86.4586 248.033 86.4586 246.305C86.4586 244.605 84.3199 243.697 80.7457 243.697ZM81.3609 226.998V229.635H72.7184V236.285C77.7867 236.271 80.6139 236.124 83.734 235.465L84.0562 238.072C80.6285 238.805 77.4937 238.922 71.6344 238.922H69.4957V226.998H81.3609ZM114.54 225.123V235.67H118.612V238.365H114.54V251.607H111.318V225.123H114.54ZM109.267 229.195V231.803H93.6516V229.195H99.9211V225.504H103.173V229.195H109.267ZM101.562 233.531C105.37 233.531 108.212 236.109 108.212 239.771C108.212 243.434 105.37 245.982 101.562 245.982C97.6945 245.982 94.8527 243.434 94.882 239.771C94.8527 236.109 97.6945 233.531 101.562 233.531ZM101.562 236.197C99.4816 236.197 97.9875 237.604 97.9875 239.771C97.9875 241.939 99.4816 243.316 101.562 243.287C103.583 243.316 105.077 241.939 105.107 239.771C105.077 237.604 103.583 236.197 101.562 236.197ZM140.571 232.623V235.201H122.231V226.09H125.454V232.623H140.571ZM143.296 238.277V240.855H119.096V238.277H143.296ZM140.747 248.355V250.992H121.997V243.199H125.249V248.355H140.747ZM175.172 245.689V248.414H150.973V245.689H175.172ZM173.062 227.584V230.191H169.195V238.629H172.975V241.207H153.053V238.629H156.773V230.191H152.965V227.584H173.062ZM160.025 238.629H165.973V230.191H160.025V238.629ZM200.5 245.836V248.531H176.3V245.836H186.73V241.529H179.171V232.857H194.406V229.576H179.113V226.939H197.629V235.436H182.423V238.863H198.244V241.529H189.953V245.836H200.5ZM219.06 225.68V241.09H215.954V234.41H212.644V231.773H215.954V225.68H219.06ZM209.802 230.807C209.802 233.648 211.384 236.52 214.753 237.867L213.113 240.357C210.769 239.449 209.187 237.75 208.279 235.699C207.312 237.999 205.627 239.889 203.122 240.914L201.423 238.365C204.968 236.959 206.638 233.824 206.638 230.807V229.752H202.185V227.145H213.991V229.752H209.802V230.807ZM224.275 225.123V241.266H221.169V225.123H224.275ZM224.275 242.32V251.607H221.023V244.928H206.14V242.32H224.275ZM248.489 239.01V241.588H229.915V227.203H248.255V229.84H233.225V233.033H247.639V235.582H233.225V239.01H248.489ZM251.155 245.719V248.385H226.956V245.719H251.155ZM273.026 225.123V235.465H276.952V238.189H273.026V251.549H269.774V225.123H273.026ZM266.024 227.877C266.024 235.67 262.801 242.496 253.983 246.832L252.137 244.312C258.582 241.104 262.069 236.593 262.743 230.572H253.573V227.877H266.024ZM290.136 240.621V243.463H293.623V240.621H296.64V249.029C299.746 247.726 301.181 245.045 301.181 242.525V240.416H304.433V242.525C304.433 245.279 305.839 247.945 309.121 249.059L307.451 251.49C305.122 250.655 303.613 249.044 302.793 247.037C301.899 248.985 300.39 250.597 298.193 251.49L296.64 249.176V251.285H287.089V240.621H290.136ZM290.136 248.795H293.623V245.895H290.136V248.795ZM291.484 226.207C294.897 226.207 297.592 228.111 298.281 230.982H303.056V225.123H306.308V239.156H303.056V233.678H298.281C297.636 236.622 294.912 238.57 291.484 238.57C287.412 238.57 284.482 236.021 284.482 232.359C284.482 228.727 287.412 226.207 291.484 226.207ZM291.484 228.902C289.199 228.902 287.587 230.25 287.587 232.359C287.587 234.498 289.199 235.904 291.484 235.904C293.711 235.904 295.293 234.498 295.322 232.359C295.293 230.25 293.711 228.902 291.484 228.902ZM315.581 241.002V243.521H327.241V241.002H330.493V251.285H312.359V241.002H315.581ZM315.581 248.707H327.241V246.012H315.581V248.707ZM333.599 236.842V239.508H309.458V236.842H333.599ZM323.198 226.412C323.198 229.254 326.831 232.242 332.31 232.887L331.167 235.465C326.729 234.864 323.228 232.901 321.529 230.221C319.815 232.916 316.299 234.864 311.89 235.465L310.689 232.887C316.226 232.213 319.829 229.342 319.859 226.412V225.416H323.198V226.412ZM356.876 225.123V251.607H353.653V225.123H356.876ZM339.532 227.701V242.174C343.253 242.115 347.208 241.778 351.28 240.973L351.69 243.697C347.032 244.664 342.696 244.957 338.595 244.957H336.309V227.701H339.532ZM380.856 225.123V235.172H384.928V237.838H380.856V251.637H377.604V225.123H380.856ZM373.59 227.643V230.279H364.45V242.438C368.566 242.438 371.818 242.232 375.465 241.588L375.846 244.342C371.745 245.045 368.17 245.162 363.395 245.162H361.198V227.643H373.59ZM388.664 249.234C387.404 249.234 386.379 248.209 386.379 246.949C386.379 245.719 387.404 244.693 388.664 244.693C389.865 244.693 390.92 245.719 390.92 246.949C390.92 248.209 389.865 249.234 388.664 249.234Z" fill="#7F7F7F"/>
<path d="M69.3277 278.047V279.355H53.4293V278.047H69.3277ZM67.8043 265.977V267.246H65.0504V273.32H67.7652V274.57H54.8746V273.32H57.5894V267.246H54.8355V265.977H67.8043ZM59.1129 273.32H63.5465V267.246H59.1129V273.32ZM86.2129 278.145V279.434H70.3144V278.145H77.4629V274.863H72.3066V269.512H82.6973V266.777H72.2676V265.508H84.2012V270.762H73.8301V273.594H84.6113V274.863H78.9668V278.145H86.2129ZM98.5668 264.609V274.688H97.0824V269.98H94.4262V268.711H97.0824V264.609H98.5668ZM92.3363 267.949C92.3363 269.844 93.6059 271.895 95.8129 272.812L95.0121 273.984C93.3812 273.301 92.2387 272.002 91.6527 270.508C91.0375 272.197 89.8266 273.652 88.098 274.414L87.2777 273.203C89.5434 272.246 90.8519 270.02 90.8519 267.949V266.914H87.6098V265.645H95.4027V266.914H92.3363V267.949ZM101.946 264.219V274.844H100.481V264.219H101.946ZM101.946 275.605V281.582H100.442V276.855H90.2465V275.605H101.946ZM118.147 273.613V274.863H106.136V265.723H117.952V267.012H107.698V269.59H117.581V270.82H107.698V273.613H118.147ZM119.983 278.047V279.316H104.085V278.047H119.983ZM136.849 272.285V273.496H120.95V272.285H136.849ZM134.857 274.883V278.574H124.427V280.234H135.423V281.348H122.884V277.52H133.333V276.035H122.864V274.883H134.857ZM134.798 264.746V268.34H124.544V269.863H135.111V270.977H123.021V267.285H133.255V265.859H122.962V264.746H134.798ZM158.295 274.727V276.016H151.127V281.621H149.623V276.016H142.475V274.727H158.295ZM151.146 267.656C151.146 269.824 154.174 271.719 157.279 272.148L156.713 273.379C154.027 272.969 151.498 271.621 150.404 269.727C149.291 271.641 146.723 272.969 144.037 273.379L143.471 272.148C146.557 271.719 149.623 269.844 149.623 267.656V267.637H144.018V266.387H149.623V264.219H151.127V266.387H156.771V267.637H151.146V267.656ZM172.797 264.219V271.289H175.61V272.578H172.797V281.582H171.274V264.219H172.797ZM168.305 266.094C168.305 271.016 166 275.488 160.336 278.281L159.477 277.07C163.969 274.834 166.411 271.494 166.762 267.383H160.278V266.094H168.305ZM189.682 264.219V271.387H192.593V272.656H189.682V281.582H188.159V264.219H189.682ZM186.479 267.012V268.281H176.147V267.012H180.62V264.434H182.143V267.012H186.479ZM181.401 269.727C183.862 269.727 185.639 271.367 185.659 273.711C185.639 276.055 183.862 277.695 181.401 277.695C178.921 277.695 177.124 276.055 177.143 273.711C177.124 271.367 178.921 269.727 181.401 269.727ZM181.401 271.016C179.78 271.016 178.589 272.148 178.608 273.711C178.589 275.293 179.78 276.406 181.401 276.387C183.003 276.406 184.175 275.293 184.194 273.711C184.175 272.148 183.003 271.016 181.401 271.016ZM197.798 265.566C199.39 265.576 200.679 266.504 201.431 268.105H206.001V264.219H207.525V281.621H206.001V274.883H201.548C200.816 276.641 199.478 277.656 197.798 277.656C195.239 277.656 193.443 275.312 193.443 271.621C193.443 267.93 195.239 265.586 197.798 265.566ZM197.798 266.934C196.079 266.953 194.907 268.789 194.907 271.621C194.907 274.453 196.079 276.289 197.798 276.289C199.497 276.289 200.689 274.453 200.689 271.621C200.689 268.789 199.497 266.953 197.798 266.934ZM201.88 269.395C202.036 270.068 202.134 270.811 202.134 271.621C202.134 272.334 202.056 273.008 201.939 273.613H206.001V269.395H201.88ZM228.99 264.219V281.582H227.447V264.219H228.99ZM223.854 266.113C223.834 271.113 221.51 275.527 215.689 278.32L214.85 277.07C219.547 274.844 221.939 271.514 222.291 267.363H215.65V266.113H223.854ZM247.399 273.789V275.059H231.5V273.789H238.688V271.953H233.571V267.715H243.805V265.918H233.512V264.668H245.348V268.867H235.094V270.723H245.719V271.953H240.192V273.789H247.399ZM245.446 276.387V281.426H243.903V277.637H233.278V276.387H245.446ZM256.315 264.531C260.182 264.531 262.448 265.586 262.448 267.52C262.448 269.492 260.182 270.547 256.315 270.566C252.448 270.547 250.163 269.492 250.163 267.52C250.163 265.586 252.448 264.531 256.315 264.531ZM256.315 265.684C253.425 265.684 251.745 266.387 251.764 267.52C251.745 268.73 253.425 269.395 256.315 269.395C259.186 269.395 260.886 268.73 260.886 267.52C260.886 266.387 259.186 265.684 256.315 265.684ZM264.225 271.738V272.988H248.405V271.738H264.225ZM262.194 274.492V278.379H251.882V280.176H262.721V281.387H250.358V277.246H260.69V275.664H250.319V274.492H262.194ZM276.082 268.887C276.062 272.051 278.23 275.254 280.789 276.406L279.851 277.617C277.879 276.65 276.17 274.609 275.339 272.129C274.529 274.756 272.82 276.943 270.789 277.969L269.812 276.68C272.39 275.488 274.539 272.188 274.558 268.887V265.723H276.082V268.887ZM284.226 264.219V281.621H282.683V264.219H284.226ZM292.674 267.441C292.674 269.746 294.373 271.855 296.951 272.754L296.17 273.945C294.188 273.242 292.674 271.816 291.932 270.02C291.189 271.992 289.598 273.525 287.557 274.277L286.736 273.086C289.334 272.168 291.15 269.922 291.17 267.441V266.699H287.205V265.449H296.58V266.699H292.674V267.441ZM300.369 264.219V268.809H302.986V270.117H300.369V274.688H298.846V264.219H300.369ZM300.369 275.605V281.582H298.846V276.855H289.002V275.605H300.369ZM312.352 267.227V268.477H303.641V267.227H307.254V264.746H308.778V267.227H312.352ZM307.996 269.648C310.184 269.648 311.746 271.289 311.766 273.594C311.746 275.918 310.184 277.578 307.996 277.578C305.828 277.578 304.266 275.918 304.266 273.594C304.266 271.289 305.828 269.648 307.996 269.648ZM307.996 270.938C306.629 270.957 305.633 272.07 305.633 273.594C305.633 275.137 306.629 276.25 307.996 276.23C309.383 276.25 310.399 275.137 310.399 273.594C310.399 272.07 309.383 270.957 307.996 270.938ZM318.465 264.219V281.582H317V272.812H314.696V280.723H313.25V264.648H314.696V271.543H317V264.219H318.465ZM341.083 278.086V279.355H325.185V278.086H332.333V274.336H327.06V265.449H328.603V268.594H337.626V265.449H339.13V274.336H333.837V278.086H341.083ZM328.603 273.086H337.626V269.844H328.603V273.086ZM347.226 269.16C347.226 271.914 348.574 274.902 350.879 276.27L350 277.461C348.33 276.445 347.129 274.59 346.523 272.48C345.879 274.785 344.589 276.768 342.851 277.832L341.875 276.68C344.277 275.273 345.742 272.188 345.742 269.219V265.859H347.226V269.16ZM356.953 264.219V281.582H355.468V264.219H356.953ZM353.359 264.59V280.703H351.914V271.758H348.964V270.449H351.914V264.59H353.359ZM374.854 278.066V279.355H358.955V278.066H362.9V273.379C361.416 272.607 360.518 271.357 360.518 269.785C360.518 267.09 363.154 265.332 366.865 265.312C370.576 265.332 373.213 267.09 373.213 269.785C373.213 271.328 372.344 272.568 370.908 273.34V278.066H374.854ZM366.865 266.582C364.014 266.562 362.002 267.852 362.002 269.785C362.002 271.719 364.014 273.027 366.865 273.027C369.697 273.027 371.729 271.719 371.729 269.785C371.729 267.852 369.697 266.562 366.865 266.582ZM364.404 278.066H369.365V273.926C368.613 274.131 367.773 274.238 366.865 274.238C365.977 274.238 365.146 274.141 364.404 273.945V278.066ZM378.653 265.859L378.516 276.016H376.875L376.739 265.859H378.653ZM377.696 280.117C377.012 280.117 376.426 279.551 376.446 278.848C376.426 278.164 377.012 277.598 377.696 277.598C378.379 277.598 378.946 278.164 378.946 278.848C378.946 279.551 378.379 280.117 377.696 280.117Z" fill="#7F7F7F"/>
<path d="M188 160.5H251" stroke="#DCDCDC" stroke-width="4" stroke-linecap="round"/>
<path d="M219.5 129L219.5 192" stroke="#DCDCDC" stroke-width="4" stroke-linecap="round"/>
<defs>
<filter id="filter0_d_1266_8654" x="0" y="0" width="438" height="350" filterUnits="userSpaceOnUse" color-interpolation-filters="sRGB">
<feFlood flood-opacity="0" result="BackgroundImageFix"/>
<feColorMatrix in="SourceAlpha" type="matrix" values="0 0 0 0 0 0 0 0 0 0 0 0 0 0 0 0 0 0 127 0" result="hardAlpha"/>
<feOffset dx="1" dy="1"/>
<feGaussianBlur stdDeviation="3"/>
<feComposite in2="hardAlpha" operator="out"/>
<feColorMatrix type="matrix" values="0 0 0 0 0 0 0 0 0 0 0 0 0 0 0 0 0 0 0.1 0"/>
<feBlend mode="normal" in2="BackgroundImageFix" result="effect1_dropShadow_1266_8654"/>
<feBlend mode="normal" in="SourceGraphic" in2="effect1_dropShadow_1266_8654" result="shape"/>
</filter>
</defs>
</svg>
