<svg width="11" height="18" viewBox="0 0 11 18" fill="none" xmlns="http://www.w3.org/2000/svg">
    <rect width="11" height="18" fill="#F5F5F5" />
    <g
        id="&#237;&#153;&#149;&#236;&#160;&#149;&#237;&#142;&#152;&#236;&#157;&#180;&#236;&#167;&#128;">
        <path
            d="M-537 -3405C-537 -3406.1 -536.105 -3407 -535 -3407H5537C5538.1 -3407 5539 -3406.1 5539 -3405V3176C5539 3177.1 5538.1 3178 5537 3178H-535C-536.105 3178 -537 3177.1 -537 3176V-3405Z"
            fill="#DFDFDF" />
        <path
            d="M-535 -3406H5537V-3408H-535V-3406ZM5538 -3405V3176H5540V-3405H5538ZM5537 3177H-535V3179H5537V3177ZM-536 3176V-3405H-538V3176H-536ZM-535 3177C-535.552 3177 -536 3176.55 -536 3176H-538C-538 3177.66 -536.657 3179 -535 3179V3177ZM5538 3176C5538 3176.55 5537.55 3177 5537 3177V3179C5538.66 3179 5540 3177.66 5540 3176H5538ZM5537 -3406C5537.55 -3406 5538 -3405.55 5538 -3405H5540C5540 -3406.66 5538.66 -3408 5537 -3408V-3406ZM-535 -3408C-536.657 -3408 -538 -3406.66 -538 -3405H-536C-536 -3405.55 -535.552 -3406 -535 -3406V-3408Z"
            fill="black" fill-opacity="0.1" />
        <g
            id="&#237;&#153;&#149;&#236;&#160;&#149;) &#234;&#178;&#189;&#237;&#151;&#152;&#234;&#184;&#176;&#235;&#161;&#157; &#236;&#182;&#148;&#234;&#176;&#128; &#237;&#142;&#152;&#236;&#157;&#180;&#236;&#167;&#128;"
            clip-path="url(#clip0_0_1)">
            <rect width="1440" height="2000" transform="translate(-125 -115)" fill="white" />
            <path id="Vector 52" d="M9.78906 1L1.36801 9L9.78906 17" stroke="#7F7F7F"
                stroke-width="1.5" stroke-linecap="round" />
        </g>
    </g>
    <defs>
        <clipPath id="clip0_0_1">
            <rect width="1440" height="2000" fill="white" transform="translate(-125 -115)" />
        </clipPath>
    </defs>
</svg>