<svg width="24" height="24" viewBox="0 0 24 24" fill="none" xmlns="http://www.w3.org/2000/svg">
<path d="M13 19H3.6C3.44087 19 3.28826 18.9368 3.17574 18.8243C3.06321 18.7117 3 18.5591 3 18.4V1.6C3 1.44087 3.06321 1.28826 3.17574 1.17574C3.28826 1.06321 3.44087 1 3.6 1H20.4C20.5591 1 20.7117 1.06321 20.8243 1.17574C20.9368 1.28826 21 1.44087 21 1.6V11" stroke="#222222" stroke-linecap="round" stroke-linejoin="round"/>
<path d="M3 14L10 11L15.5 13.5M16 17H19M19 17H22M19 17V14M19 17V20M16 8C15.4696 8 14.9609 7.78929 14.5858 7.41421C14.2107 7.03914 14 6.53043 14 6C14 5.46957 14.2107 4.96086 14.5858 4.58579C14.9609 4.21071 15.4696 4 16 4C16.5304 4 17.0391 4.21071 17.4142 4.58579C17.7893 4.96086 18 5.46957 18 6C18 6.53043 17.7893 7.03914 17.4142 7.41421C17.0391 7.78929 16.5304 8 16 8Z" stroke="#222222" stroke-linecap="round" stroke-linejoin="round"/>
</svg>
