<svg width="168" height="50" viewBox="0 0 168 50" fill="none" xmlns="http://www.w3.org/2000/svg">
<g id="Group 146">
<g id="Group 144">
<path id="Vector" d="M69.5492 21.407L66.9455 17.5689H63.1746L63.2345 25.2743C63.2345 25.3915 63.1148 25.5087 62.9951 25.5087H59.7629C59.6431 25.5087 59.5234 25.3915 59.5234 25.2743L59.6132 15.1372L59.5234 5.23439C59.5234 5.11719 59.6431 5 59.7629 5H67.6937C72.6917 5 75.6545 7.10947 75.6545 11.2698C75.6545 14.4047 73.8588 16.4263 70.8361 17.2173L76.1633 25.3036C76.2231 25.3915 76.1633 25.5087 76.0436 25.5087H72.2427C72.0931 25.5087 71.9435 25.4208 71.8836 25.3036L69.5492 21.407ZM67.9032 7.75403H63.2046L63.1447 14.7856H67.993C70.3274 14.7856 72.0931 13.7894 72.0931 11.3284C72.0931 8.86736 70.5668 7.75403 67.9032 7.75403Z" fill="#196E4B"/>
<path id="Vector_2" d="M78.9668 25.5087C78.8584 25.5087 78.75 25.3915 78.75 25.2743L78.8584 15.1079L78.75 5.23439C78.75 5.11719 78.8584 5 78.9668 5H91.1344C91.2428 5 91.3512 5.11719 91.3512 5.23439V7.57824C91.3512 7.69543 91.2428 7.81262 91.1344 7.81262H82.1103L82.029 13.2328H90.4027C90.5111 13.2328 90.6195 13.35 90.6195 13.4672V15.811C90.6195 15.9282 90.5111 16.0454 90.4027 16.0454H82.029L82.1103 22.6961H91.3512C91.4595 22.6961 91.5679 22.8133 91.5679 22.9305V25.2743C91.5679 25.3915 91.4595 25.5087 91.3512 25.5087H78.9668Z" fill="#196E4B"/>
<path id="Vector_3" d="M102.224 25.5087C96.4089 25.5087 92.8477 21.452 92.8477 15.2825C92.8477 9.11301 96.4923 5 102.224 5C106.258 5 109.652 6.77479 110.654 11.9865C110.654 12.0992 110.57 12.2119 110.459 12.2119H107.565C107.454 12.2119 107.315 12.1273 107.287 11.9865C106.731 9.19753 104.867 7.78896 102.168 7.78896C98.4399 7.78896 96.381 10.6624 96.381 15.2825C96.381 19.9026 98.5233 22.7198 102.14 22.7198C105.117 22.7198 106.926 21.0858 107.371 18.0715C107.399 17.9306 107.51 17.8461 107.621 17.8461H110.598C110.709 17.8461 110.793 17.9588 110.793 18.0715C109.902 23.3114 106.759 25.5087 102.224 25.5087Z" fill="#196E4B"/>
<path id="Vector_4" d="M121.688 25.5087C115.875 25.5087 112.074 21.3675 112.074 15.2825C112.074 9.19753 115.847 5 121.688 5C127.528 5 131.301 8.94398 131.301 15.3107C131.301 21.6774 127.473 25.5087 121.688 25.5087ZM121.688 22.7198C125.544 22.7198 127.78 19.9308 127.78 15.3107C127.78 10.6906 125.544 7.78896 121.688 7.78896C117.831 7.78896 115.623 10.6061 115.623 15.3107C115.623 20.0153 117.859 22.7198 121.688 22.7198Z" fill="#196E4B"/>
<path id="Vector_5" d="M141.841 21.407L139.437 17.5689H135.956L136.012 25.2743C136.012 25.3915 135.901 25.5087 135.791 25.5087H132.807C132.696 25.5087 132.586 25.3915 132.586 25.2743L132.669 15.1372L132.586 5.23439C132.586 5.11719 132.696 5 132.807 5H140.128C144.741 5 147.476 7.10947 147.476 11.2698C147.476 14.4047 145.819 16.4263 143.028 17.2173L147.946 25.3036C148.001 25.3915 147.946 25.5087 147.835 25.5087H144.327C144.189 25.5087 144.051 25.4208 143.995 25.3036L141.841 21.407ZM140.321 7.75403H135.984L135.929 14.7856H140.404C142.559 14.7856 144.189 13.7894 144.189 11.3284C144.189 8.86736 142.78 7.75403 140.321 7.75403Z" fill="#196E4B"/>
<path id="Vector_6" d="M149.483 25.5087C149.365 25.5087 149.246 25.3915 149.246 25.2743L149.365 15.1372L149.246 5.23439C149.246 5.11719 149.365 5 149.483 5H156.454C162.416 5 167.191 8.33999 167.191 15.3422C167.191 22.3445 162.208 25.5087 156.513 25.5087H149.483ZM152.954 22.6961H156.75C160.25 22.6961 163.454 20.5573 163.454 15.313C163.454 10.0686 160.428 7.81262 156.632 7.81262H152.954C152.954 7.84192 152.865 12.3538 152.865 15.0493C152.865 17.7447 152.954 22.6668 152.954 22.6961Z" fill="#196E4B"/>
<path id="Vector_7" d="M115.35 40.4849L115.378 49.6259C115.378 49.7431 115.264 49.8603 115.151 49.8603H112.302C112.188 49.8603 112.074 49.7431 112.074 49.6259L112.16 39.5473L112.074 29.5859C112.074 29.4688 112.188 29.3516 112.302 29.3516H116.034C116.176 29.3516 116.318 29.4395 116.375 29.5566L125.604 45.3191L125.576 44.2936L125.462 39.3715V29.5859C125.462 29.4688 125.576 29.3516 125.69 29.3516H128.51C128.624 29.3516 128.738 29.4688 128.738 29.5859L128.652 39.5473L128.738 49.6259C128.738 49.7431 128.624 49.8603 128.51 49.8603H124.636C124.493 49.8603 124.351 49.7724 124.294 49.6552L115.207 34.1272L115.264 35.5628L115.35 40.4849Z" fill="#196E4B"/>
<path id="Vector (Stroke)" fill-rule="evenodd" clip-rule="evenodd" d="M105.23 46.8594V40.1063C105.23 35.7387 101.815 32.3507 97.7988 32.3507H69.6089C65.7826 32.3507 62.5223 35.5823 62.5223 39.7505C62.5223 43.7611 65.6609 46.8594 69.3266 46.8594L105.23 46.8594ZM106.238 49.8594L69.3266 49.8594C63.9195 49.8594 59.5223 45.3321 59.5223 39.7505C59.5223 34.0138 64.0387 29.3507 69.6089 29.3507L97.7988 29.3507C103.557 29.3507 108.23 34.169 108.23 40.1063V48.1196C108.23 49.0768 107.478 49.8529 106.549 49.8529L106.238 49.8594Z" fill="#196E4B"/>
<g id="Group">
<path id="Vector_8" d="M49.4913 31.1953L45.2986 26.9937C44.7803 26.4743 44.7803 25.6219 45.2986 25.1001L49.826 20.5632V6.55161C49.826 5.72247 49.1566 5.0517 48.3293 5.0517H16.9978C16.5655 2.75061 15.9264 0.0395938 14.5831 0H3.07636C1.69351 0.00232905 0.57328 1.12493 0.57328 2.51071V5.97401C0.57328 6.06484 0.577929 6.15567 0.587225 6.24418C0.566308 6.34433 0.554688 6.4468 0.554688 6.55394V48.5001C0.554688 49.3292 1.22403 50 2.05142 50H48.3293C49.1566 50 49.826 49.3292 49.826 48.5001V31.5167C49.7121 31.4142 49.6005 31.3094 49.4913 31.1999V31.1953ZM4.40508 10.2861C4.40508 9.55017 4.95245 9.00163 5.68687 9.00163H26.1956C30.5347 9.00163 33.7942 12.4814 33.7942 16.8297C33.7942 21.2246 30.2995 24.4158 25.9163 24.4158H13.3776C8.64806 24.4158 4.40508 20.8037 4.40508 16.0665V10.2861ZM45.4225 44.968C45.4225 45.704 44.7633 46.2525 44.0289 46.2525H13.3776C9.03851 46.2525 6.05587 42.5238 6.05587 38.1754C6.05587 33.7805 8.99435 30.8384 13.3776 30.8384H37.7317C42.4613 30.8384 45.4225 33.8082 45.4225 38.5454V44.968Z" fill="#196E4B"/>
</g>
<path id="Vector 68 (Stroke)" fill-rule="evenodd" clip-rule="evenodd" d="M8.55469 14C8.55469 13.4477 9.0024 13 9.55469 13H18.5547C19.107 13 19.5547 13.4477 19.5547 14C19.5547 14.5523 19.107 15 18.5547 15H9.55469C9.0024 15 8.55469 14.5523 8.55469 14ZM8.55469 19C8.55469 18.4477 9.0024 18 9.55469 18H28.5547C29.107 18 29.5547 18.4477 29.5547 19C29.5547 19.5523 29.107 20 28.5547 20H9.55469C9.0024 20 8.55469 19.5523 8.55469 19Z" fill="#196E4B"/>
<path id="Vector 69 (Stroke)" fill-rule="evenodd" clip-rule="evenodd" d="M68.5547 37C68.5547 36.4477 69.0024 36 69.5547 36H98.5547C99.107 36 99.5547 36.4477 99.5547 37C99.5547 37.5523 99.107 38 98.5547 38H69.5547C69.0024 38 68.5547 37.5523 68.5547 37ZM68.5547 42C68.5547 41.4477 69.0024 41 69.5547 41H98.5547C99.107 41 99.5547 41.4477 99.5547 42C99.5547 42.5523 99.107 43 98.5547 43H69.5547C69.0024 43 68.5547 42.5523 68.5547 42Z" fill="#196E4B"/>
</g>
</g>
</svg>
