<svg width="24" height="24" viewBox="0 0 24 24" fill="none" xmlns="http://www.w3.org/2000/svg">
<g id="material-symbols-light:logout">
<path id="Vector" d="M3.616 20C3.15533 20 2.771 19.846 2.463 19.538C2.155 19.23 2.00067 18.8453 2 18.384V5.616C2 5.15533 2.15433 4.771 2.463 4.463C2.77167 4.155 3.156 4.00067 3.616 4H10.019V5H3.616C3.462 5 3.32067 5.064 3.192 5.192C3.06333 5.32 2.99933 5.46133 3 5.616V18.385C3 18.5383 3.064 18.6793 3.192 18.808C3.32 18.9367 3.461 19.0007 3.615 19H10.019V20H3.616ZM14.462 15.539L13.76 14.819L16.079 12.5H7.192V11.5H16.079L13.759 9.18L14.461 8.462L18 12L14.462 15.539Z" fill="#303030"/>
</g>
</svg>
