<svg width="529" height="215" viewBox="0 0 529 215" fill="none" xmlns="http://www.w3.org/2000/svg">
<path d="M101.673 0.0966797V29.7598H96.3553V15.9609H92.8836V28.9248H87.6541V0.799805H92.8836V11.4346H96.3553V0.0966797H101.673ZM102.683 34.8574V39.3398H74.5584V26.9473H80.1834V34.8574H102.683ZM84.1385 3.30469V15.7412H74.3387V19.8281C78.7112 19.8062 81.9632 19.6084 85.7645 18.8613L86.2478 23.2998C81.5896 24.1348 77.6346 24.2666 71.702 24.2666H68.9334V11.6104H78.7332V7.69922H68.8895V3.30469H84.1385ZM138.785 0.0527344V23.959H133.16V0.0527344H138.785ZM126.7 3.04102V7.52344H113.121V17.0156C120.702 16.9717 125.096 16.708 129.996 15.7412L130.48 20.2236C125.074 21.3223 120.196 21.498 111.056 21.498H107.584V3.04102H126.7ZM125.162 24.3545C133.556 24.3105 138.873 27.2549 138.917 32.2207C138.873 37.1865 133.556 40.0869 125.162 40.0869C116.593 40.0869 111.407 37.1865 111.407 32.2207C111.407 27.2549 116.593 24.3105 125.162 24.3545ZM125.162 28.749C119.845 28.749 117.032 29.8477 117.032 32.2207C117.032 34.5498 119.845 35.7363 125.162 35.7363C130.436 35.7363 133.38 34.5498 133.38 32.2207C133.38 29.8477 130.436 28.749 125.162 28.749ZM178.271 0.0527344V40.043H172.866V0.0527344H178.271ZM170.185 0.84375V38.1533H164.868V19.6084H161.001V14.5986H164.868V0.84375H170.185ZM161.923 4.5791V9.10547H159.375V25.7168C160.495 25.6289 161.572 25.519 162.583 25.3652L162.978 29.4082C156.65 30.7705 148.476 30.9023 143.466 30.9023L142.851 26.2881H146.191V9.10547H143.598V4.5791H161.923ZM151.157 26.2002L154.277 26.0684V9.10547H151.157V26.2002ZM214.769 0.0527344V40.1309H209.1V0.0527344H214.769ZM193.06 2.86523C199.08 2.86523 203.562 8.40234 203.562 17.1035C203.562 25.8926 199.08 31.3857 193.06 31.3857C186.907 31.3857 182.425 25.8926 182.469 17.1035C182.425 8.40234 186.907 2.86523 193.06 2.86523ZM193.06 7.91895C189.939 7.91895 187.874 11.1709 187.874 17.1035C187.874 23.0801 189.939 26.2881 193.06 26.2881C196.092 26.2881 198.157 23.0801 198.157 17.1035C198.157 11.1709 196.092 7.91895 193.06 7.91895ZM234.786 10.9512C234.786 17.4111 238.082 24.3105 244.806 27.123L241.774 31.5176C237.05 29.5181 233.798 25.541 232.018 20.6631C230.194 25.9585 226.876 30.353 222.174 32.5283L218.966 28.0898C225.602 25.1455 229.03 17.7188 229.03 10.9512V8.49023H220.548V3.91992H243.136V8.49023H234.786V10.9512ZM252.76 0.0527344V40.043H247.091V0.0527344H252.76ZM288.818 0.0527344V15.3896H294.487V20.0039H288.818V39.9551H283.193V0.0527344H288.818ZM278.139 4.13965C278.096 16.0928 273.437 26.4639 259.99 33.0557L256.826 28.749C266.296 24.0029 271.372 17.6309 272.427 8.70996H259.111V4.13965H278.139ZM317.516 7.17188C317.516 11.4785 319.757 15.7852 325.075 17.8066L322.087 22.0693C318.681 20.7729 316.33 18.3999 314.879 15.4336C313.429 18.9053 310.924 21.8057 307.189 23.3438L304.157 19.0371C309.782 16.5762 312.067 11.6543 312.067 7.17188V2.46973H317.516V7.17188ZM339.093 0.0966797V24.5303H333.776V14.3789H330.436V23.2998H325.207V0.799805H330.436V9.85254H333.776V0.0966797H339.093ZM325.426 25.1016C333.864 25.1016 339.269 27.9141 339.313 32.5723C339.269 37.2305 333.864 40.043 325.426 40.043C316.945 40.043 311.584 37.2305 311.584 32.5723C311.584 27.9141 316.945 25.1016 325.426 25.1016ZM325.426 29.2764C320.197 29.2764 317.165 30.4189 317.209 32.5723C317.165 34.7256 320.197 35.8242 325.426 35.8242C330.612 35.8242 333.644 34.7256 333.644 32.5723C333.644 30.4189 330.612 29.2764 325.426 29.2764ZM376.206 0.0527344V20.1797H370.581V0.0527344H376.206ZM364.077 1.50293C364.033 12.4893 357.925 18.4658 345.269 21.0146L343.291 16.4883C353.157 14.6646 357.266 10.8413 357.881 6.0293H345.444V1.50293H364.077ZM376.206 21.7617V32.5723H355.112V35.2969H377.305V39.6475H349.443V28.5293H370.537V26.1123H349.355V21.7617H376.206ZM424.855 0.0527344V40.043H419.494V0.0527344H424.855ZM416.681 0.624023V38.1973H411.408V25.8047H406.706C405.212 29.6938 402.597 31.9131 399.235 31.9131C393.962 31.9131 390.534 26.376 390.534 17.3672C390.534 8.40234 393.962 2.90918 399.235 2.90918C402.575 2.90918 405.19 5.08447 406.706 8.92969H411.408V0.624023H416.681ZM399.235 8.18262C396.906 8.18262 395.588 11.2588 395.632 17.3672C395.588 23.5195 396.906 26.5518 399.235 26.5078C401.564 26.5518 402.971 23.5195 402.971 17.3672C402.971 11.2588 401.52 8.18262 399.235 8.18262ZM407.805 13.4121C407.98 14.6426 408.068 15.9609 408.068 17.3672C408.068 18.7515 407.98 20.0698 407.805 21.2783H411.408V13.4121H407.805ZM461.88 0.0527344V23.7832H456.299V14.335H450.059V9.80859H456.299V0.0527344H461.88ZM448.213 24.6621C456.738 24.7061 461.968 27.5186 462.012 32.3965C461.968 37.2305 456.738 40.0869 448.213 40.0869C439.688 40.0869 434.458 37.2305 434.458 32.3965C434.458 27.5186 439.688 24.7061 448.213 24.6621ZM448.213 28.9688C442.896 28.9688 440.039 30.0674 440.039 32.3965C440.039 34.6816 442.896 35.8242 448.213 35.8242C453.53 35.8242 456.431 34.6816 456.431 32.3965C456.431 30.0674 453.53 28.9688 448.213 28.9688ZM451.245 2.46973V6.95215H443.291C443.423 11.6104 446.236 16.3125 452.476 18.3779L449.707 22.7725C445.291 21.3442 442.258 18.4438 440.523 14.8184C438.743 18.9053 435.557 22.2012 430.811 23.8271L427.91 19.3887C434.48 17.1914 437.424 11.9619 437.578 6.95215H429.536V2.46973H451.245ZM116.241 116.053V156.043H110.879V116.053H116.241ZM108.242 116.712V154.285H102.969V135.389H99.6292V130.818H102.969V116.712H108.242ZM100.552 122.117V126.556H81.5237V122.117H88.2913V117.02H93.8724V122.117H100.552ZM90.928 128.401C95.9378 128.401 99.5413 132.356 99.5413 137.894C99.5413 143.475 95.9378 147.43 90.928 147.43C86.0061 147.43 82.3587 143.475 82.4026 137.894C82.3587 132.356 86.0061 128.401 90.928 128.401ZM90.928 133.06C88.7308 133.06 87.2806 134.861 87.2806 137.894C87.2806 140.97 88.7308 142.771 90.928 142.771C93.1692 142.771 94.6634 140.97 94.7073 137.894C94.6634 134.861 93.1692 133.06 90.928 133.06ZM139.686 119.568V124.139H127.118V141.893C132.941 141.827 137.137 141.563 141.84 140.706L142.411 145.232C136.918 146.287 132.084 146.507 124.701 146.463H121.449V119.568H139.686ZM153.353 116.053V156.131H147.772V134.466H137.709V129.896H147.772V116.053H153.353ZM189.279 116.097V125.413H194.685V130.027H189.279V140.047H183.654V116.097H189.279ZM177.326 118.47V130.379H164.582V133.895C171.196 133.851 175.678 133.587 180.754 132.708L181.369 137.19C175.612 138.245 170.471 138.465 162.385 138.465H159.001V126.16H171.877V122.864H158.957V118.47H177.326ZM176.096 140.838C184.401 140.838 189.675 143.738 189.675 148.528C189.675 153.274 184.401 155.999 176.096 155.999C167.614 155.999 162.385 153.274 162.385 148.528C162.385 143.738 167.614 140.838 176.096 140.838ZM176.096 145.188C170.778 145.188 167.878 146.287 167.922 148.528C167.878 150.682 170.778 151.824 176.096 151.824C181.369 151.824 184.138 150.682 184.138 148.528C184.138 146.287 181.369 145.188 176.096 145.188ZM237.225 118.382V121.985C237.225 125.721 237.225 129.808 236.215 135.389H241.488V139.915H225.888V156.087H220.263V139.915H205.014V135.389H230.546C231.557 130.225 231.644 126.314 231.644 122.864H209.188V118.382H237.225ZM275.261 117.679V120.403C275.261 122.974 275.261 126.182 274.514 130.203H279.612V134.598H243.005V130.203H268.845C269.504 126.951 269.636 124.336 269.68 122.117H247.488V117.679H275.261ZM275.085 137.41V148.616H252.761V151.429H276.184V155.735H247.18V144.397H269.548V141.761H247.136V137.41H275.085ZM325.141 116.053V156.043H319.867V116.053H325.141ZM316.791 116.932V154.285H311.474V141.102H305.805V136.575H311.474V131.126H306.552C304.684 137.718 300.641 143.299 293.149 147.737L289.853 143.782C297.961 138.992 301.52 133.169 302.289 125.325H292.182V120.799H307.87C307.87 122.798 307.738 124.732 307.519 126.6H311.474V116.932H316.791ZM362.166 116.053V139.783H356.584V130.335H350.344V125.809H356.584V116.053H362.166ZM348.499 140.662C357.024 140.706 362.253 143.519 362.297 148.396C362.253 153.23 357.024 156.087 348.499 156.087C339.973 156.087 334.744 153.23 334.744 148.396C334.744 143.519 339.973 140.706 348.499 140.662ZM348.499 144.969C343.181 144.969 340.325 146.067 340.325 148.396C340.325 150.682 343.181 151.824 348.499 151.824C353.816 151.824 356.716 150.682 356.716 148.396C356.716 146.067 353.816 144.969 348.499 144.969ZM351.531 118.47V122.952H343.577C343.708 127.61 346.521 132.312 352.761 134.378L349.993 138.772C345.576 137.344 342.544 134.444 340.808 130.818C339.028 134.905 335.842 138.201 331.096 139.827L328.196 135.389C334.766 133.191 337.71 127.962 337.864 122.952H329.822V118.47H351.531ZM384.688 118.074C393.126 118.118 399.718 122.645 399.762 129.588C399.718 136.575 393.126 141.146 384.688 141.102C376.207 141.146 369.659 136.575 369.659 129.588C369.659 122.645 376.207 118.118 384.688 118.074ZM384.688 122.645C379.151 122.601 375.108 125.281 375.108 129.588C375.108 133.938 379.151 136.531 384.688 136.531C390.225 136.531 394.181 133.938 394.224 129.588C394.181 125.281 390.225 122.601 384.688 122.645ZM403.057 146.639V151.165H366.451V146.639H403.057ZM441.049 146.99V151.604H404.443V146.99H419.867V140.97H408.661V127.522H431.293V123.128H408.617V118.646H436.83V131.917H414.286V136.399H437.753V140.97H425.449V146.99H441.049ZM37.4659 204.99V209.604H0.859467V204.99H16.2843V198.97H5.07822V185.522H27.7101V181.128H5.03427V176.646H33.2472V189.917H10.7032V194.399H34.17V198.97H21.8653V204.99H37.4659ZM70.8433 177.744V182.534C70.8433 188.027 70.8433 193.477 69.3931 201.738L63.7241 201.255C65.2183 193.564 65.2183 187.852 65.2622 182.534V182.227H42.6304V177.744H70.8433ZM75.3257 204.199V208.813H38.8511V204.199H75.3257ZM110.329 174.097V202.837H104.704V174.097H110.329ZM111.384 208.857V213.34H83.5224V199.937H89.1913V208.857H111.384ZM88.4003 176.646C94.5526 176.646 99.3427 180.864 99.3427 186.709C99.3427 192.686 94.5526 196.86 88.4003 196.86C82.2479 196.86 77.4579 192.686 77.4579 186.709C77.4579 180.864 82.2479 176.646 88.4003 176.646ZM88.4003 181.523C85.2802 181.479 82.9071 183.457 82.9511 186.709C82.9071 190.049 85.2802 191.982 88.4003 191.982C91.4325 191.982 93.8056 190.049 93.8056 186.709C93.8056 183.457 91.4325 181.479 88.4003 181.523ZM158.055 174.053V214.131H152.518V192.686H145.091V204.639H125.799V177.129H131.381V186.841H139.598V177.129H145.091V188.159H152.518V174.053H158.055ZM131.381 200.156H139.598V191.235H131.381V200.156ZM198.772 195.674V200.068H162.209V195.674H198.772ZM195.08 208.857V213.34H166.691V202.09H172.229V208.857H195.08ZM194.86 188.95V193.169H166.779V175.371H194.509V179.634H172.404V182.183H193.586V186.313H172.404V188.95H194.86ZM220.679 177.349V196.553H201.475V177.349H220.679ZM207.012 181.831V192.158H215.142V181.831H207.012ZM232.017 174.053V185.566H237.422V190.181H232.017V203.232H226.392V174.053H232.017ZM233.467 208.857V213.34H206.089V200.376H211.67V208.857H233.467ZM268.142 177.349V196.553H248.938V177.349H268.142ZM254.475 181.831V192.158H262.605V181.831H254.475ZM279.48 174.053V185.566H284.885V190.181H279.48V203.232H273.855V174.053H279.48ZM280.93 208.857V213.34H253.552V200.376H259.133V208.857H280.93ZM322.305 189.653V194.048H285.743V189.653H322.305ZM317.955 183.062V187.456H290.313V174.844H317.647V179.326H295.894V183.062H317.955ZM317.779 196.421V206.88H295.499V209.341H318.834V213.691H290.006V202.881H312.242V200.64H289.962V196.421H317.779ZM344.389 177.305V180.337H351.859V174.097H357.441V203.188H351.859V193.389H344.389V196.772H325.404V177.305H344.389ZM330.985 181.743V192.422H338.896V181.743H330.985ZM358.275 208.857V213.34H330.81V200.42H336.479V208.857H358.275ZM344.389 188.95H351.859V184.863H344.389V188.95ZM395.016 190.312V194.795H387.237V201.343C390.533 201.233 393.829 201.013 396.949 200.684L397.389 204.771C388.643 206.133 379.547 206.177 372.032 206.177L371.373 201.606C374.559 201.628 378.031 201.628 381.612 201.519V194.795H374.01V177.612H394.796V182.051H379.591V190.312H395.016ZM404.815 174.053V214.131H399.234V174.053H404.815ZM434.173 184.951C434.173 191.411 437.468 198.311 444.192 201.123L441.16 205.518C436.436 203.518 433.184 199.541 431.404 194.663C429.58 199.958 426.262 204.353 421.56 206.528L418.352 202.09C424.988 199.146 428.416 191.719 428.416 184.951V182.49H419.934V177.92H442.522V182.49H434.173V184.951ZM452.146 174.053V214.043H446.477V174.053H452.146ZM502.685 194.883V199.321H466.079V194.883H481.591V192.334H470.649V181.655H492.622V179.282H470.561V174.932H498.247V185.654H476.23V188.115H498.994V192.334H487.172V194.883H502.685ZM484.316 201.079C493.237 201.079 498.378 203.32 498.422 207.539C498.378 211.802 493.237 214.043 484.316 214.043C475.263 214.043 470.078 211.802 470.122 207.539C470.078 203.32 475.263 201.079 484.316 201.079ZM484.316 205.254C478.515 205.254 475.791 205.913 475.834 207.539C475.791 209.209 478.515 210 484.316 209.956C489.985 210 492.666 209.209 492.709 207.539C492.666 205.913 489.985 205.254 484.316 205.254ZM507.102 192.554C508.597 190.972 510.486 190.137 512.552 190.137C516.155 190.137 519.231 192.642 522.835 192.642C524.856 192.642 526.702 191.807 528.152 190.225V195.586C526.658 197.168 524.768 198.003 522.703 198.003C519.099 198.003 516.023 195.498 512.42 195.498C510.398 195.498 508.553 196.333 507.102 197.915V192.554Z" fill="#121212"/>
<path d="M124.536 58.0527V98.1309H118.867V58.0527H124.536ZM102.827 60.8652C108.847 60.8652 113.33 66.4023 113.33 75.1035C113.33 83.8926 108.847 89.3857 102.827 89.3857C96.6743 89.3857 92.1919 83.8926 92.2358 75.1035C92.1919 66.4023 96.6743 60.8652 102.827 60.8652ZM102.827 65.9189C99.7065 65.9189 97.6411 69.1709 97.6411 75.1035C97.6411 81.0801 99.7065 84.2881 102.827 84.2881C105.859 84.2881 107.924 81.0801 107.924 75.1035C107.924 69.1709 105.859 65.9189 102.827 65.9189ZM150.354 61.6562V88.5068H131.018V61.6562H150.354ZM136.643 66.0508V84.0684H144.905V66.0508H136.643ZM162.527 58.0527V98.1309H156.858V58.0527H162.527ZM182.545 68.9512C182.545 75.4111 185.841 82.3105 192.565 85.123L189.533 89.5176C184.808 87.5181 181.556 83.541 179.777 78.6631C177.953 83.9585 174.635 88.353 169.933 90.5283L166.725 86.0898C173.361 83.1455 176.788 75.7188 176.788 68.9512V66.4902H168.307V61.9199H190.895V66.4902H182.545V68.9512ZM200.519 58.0527V98.043H194.85V58.0527H200.519ZM241.631 88.9902V93.6045H205.024V88.9902H220.449V82.9697H209.243V69.5225H231.875V65.1279H209.199V60.6455H237.412V73.917H214.868V78.3994H238.335V82.9697H226.03V88.9902H241.631ZM287.072 58.0527V98.043H281.754V58.0527H287.072ZM278.898 58.7119V96.1973H273.625V76.29H268.351V71.7637H273.625V58.7119H278.898ZM265.143 68.7754C265.143 75.4111 267.208 82.1348 273.053 85.4746L269.757 89.6055C266.198 87.4961 263.847 83.9146 262.506 79.6299C261.122 84.2881 258.705 88.2432 255.036 90.4844L251.652 86.3535C257.541 82.75 259.738 75.543 259.738 68.7754V66.6221H253.19V62.1396H271.208V66.6221H265.143V68.7754ZM308.496 82.9697C317.241 82.9697 322.734 85.7383 322.778 90.5283C322.734 95.2305 317.241 98.043 308.496 98.043C299.839 98.043 294.258 95.2305 294.258 90.5283C294.258 85.7383 299.839 82.9697 308.496 82.9697ZM308.496 87.1445C303.003 87.1445 299.839 88.2871 299.839 90.5283C299.839 92.6816 303.003 93.7803 308.496 93.7803C313.989 93.7803 317.197 92.6816 317.197 90.5283C317.197 88.2871 313.989 87.1445 308.496 87.1445ZM322.559 59.8545V63.1064C322.559 66.2705 322.559 69.6982 321.416 73.8291L315.923 73.3018C316.802 69.6763 316.912 66.9736 316.977 64.249H294.653V59.8545H322.559ZM326.865 75.8945V80.4209H290.566V75.8945H304.189V68.9072H309.726V75.8945H326.865ZM372.614 58.0527V98.043H367.253V58.0527H372.614ZM364.44 58.624V96.1973H359.167V83.8047H354.465C352.97 87.6938 350.356 89.9131 346.994 89.9131C341.72 89.9131 338.293 84.376 338.293 75.3672C338.293 66.4023 341.72 60.9092 346.994 60.9092C350.334 60.9092 352.948 63.0845 354.465 66.9297H359.167V58.624H364.44ZM346.994 66.1826C344.665 66.1826 343.346 69.2588 343.39 75.3672C343.346 81.5195 344.665 84.5518 346.994 84.5078C349.323 84.5518 350.729 81.5195 350.729 75.3672C350.729 69.2588 349.279 66.1826 346.994 66.1826ZM355.563 71.4121C355.739 72.6426 355.827 73.9609 355.827 75.3672C355.827 76.7515 355.739 78.0698 355.563 79.2783H359.167V71.4121H355.563ZM409.639 58.0527V81.7832H404.058V72.335H397.817V67.8086H404.058V58.0527H409.639ZM395.972 82.6621C404.497 82.7061 409.727 85.5186 409.771 90.3965C409.727 95.2305 404.497 98.0869 395.972 98.0869C387.446 98.0869 382.217 95.2305 382.217 90.3965C382.217 85.5186 387.446 82.7061 395.972 82.6621ZM395.972 86.9688C390.654 86.9688 387.798 88.0674 387.798 90.3965C387.798 92.6816 390.654 93.8242 395.972 93.8242C401.289 93.8242 404.19 92.6816 404.19 90.3965C404.19 88.0674 401.289 86.9688 395.972 86.9688ZM399.004 60.4697V64.9521H391.05C391.182 69.6104 393.994 74.3125 400.234 76.3779L397.466 80.7725C393.049 79.3442 390.017 76.4438 388.281 72.8184C386.502 76.9053 383.316 80.2012 378.569 81.8271L375.669 77.3887C382.239 75.1914 385.183 69.9619 385.337 64.9521H377.295V60.4697H399.004ZM416.913 76.5537C418.407 74.9717 420.296 74.1367 422.362 74.1367C425.965 74.1367 429.042 76.6416 432.645 76.6416C434.667 76.6416 436.512 75.8066 437.962 74.2246V79.5859C436.468 81.168 434.579 82.0029 432.513 82.0029C428.91 82.0029 425.833 79.498 422.23 79.498C420.208 79.498 418.363 80.333 416.913 81.915V76.5537Z" fill="#0BC35F"/>
</svg>
