<svg width="125" height="125" viewBox="0 0 125 125" fill="none" xmlns="http://www.w3.org/2000/svg">
<g id="Frame 218">
<circle id="Ellipse 2" cx="62.5" cy="62.5" r="62.5" fill="#DCDCDC"/>
<path id="Vector" d="M62.5 62.5C57.6875 62.5 53.5677 60.7865 50.1406 57.3594C46.7135 53.9323 45 49.8125 45 45C45 40.1875 46.7135 36.0677 50.1406 32.6406C53.5677 29.2135 57.6875 27.5 62.5 27.5C67.3125 27.5 71.4323 29.2135 74.8594 32.6406C78.2865 36.0677 80 40.1875 80 45C80 49.8125 78.2865 53.9323 74.8594 57.3594C71.4323 60.7865 67.3125 62.5 62.5 62.5ZM27.5 97.5V85.25C27.5 82.7708 28.1388 80.4929 29.4163 78.4162C30.6938 76.3396 32.3883 74.7529 34.5 73.6562C39.0208 71.3958 43.6146 69.7012 48.2812 68.5725C52.9479 67.4437 57.6875 66.8779 62.5 66.875C67.3125 66.8721 72.0521 67.4379 76.7187 68.5725C81.3854 69.7071 85.9792 71.4017 90.5 73.6562C92.6146 74.75 94.3106 76.3367 95.5881 78.4162C96.8656 80.4958 97.5029 82.7738 97.5 85.25V97.5H27.5Z" fill="white"/>
</g>
</svg>
