<svg width="444" height="356" viewBox="0 0 444 356" fill="none" xmlns="http://www.w3.org/2000/svg">
<g filter="url(#filter0_d_1170_14236)">
<path fill-rule="evenodd" clip-rule="evenodd" d="M15.5988 6C10.0106 6 5.48047 10.5301 5.48047 16.1183V62.235V67.8817V327.762C5.48047 338.938 14.5408 347.998 25.7172 347.998H416.285C427.462 347.998 436.522 338.938 436.522 327.762V62.235C436.522 51.0586 427.462 41.9983 416.285 41.9983H145.9L137.962 13.4112C136.746 9.03132 132.758 6 128.212 6H15.5988Z" fill="white"/>
<path fill-rule="evenodd" clip-rule="evenodd" d="M53.6758 69.7625C53.6758 68.4396 54.727 67.3672 56.0238 67.3672H77.1563C78.4531 67.3672 79.5044 68.4396 79.5044 69.7625C79.5044 71.0854 78.4531 72.1578 77.1563 72.1578H56.0238C54.727 72.1578 53.6758 71.0854 53.6758 69.7625ZM53.6758 81.739C53.6758 80.4161 54.727 79.3437 56.0238 79.3437H100.637C101.934 79.3437 102.985 80.4161 102.985 81.739C102.985 83.0619 101.934 84.1343 100.637 84.1343H56.0238C54.727 84.1343 53.6758 83.0619 53.6758 81.739Z" fill="white"/>
<path fill-rule="evenodd" clip-rule="evenodd" d="M53.6758 69.7625C53.6758 68.4396 54.727 67.3672 56.0238 67.3672H77.1563C78.4531 67.3672 79.5044 68.4396 79.5044 69.7625C79.5044 71.0854 78.4531 72.1578 77.1563 72.1578H56.0238C54.727 72.1578 53.6758 71.0854 53.6758 69.7625ZM53.6758 81.739C53.6758 80.4161 54.727 79.3437 56.0238 79.3437H100.637C101.934 79.3437 102.985 80.4161 102.985 81.739C102.985 83.0619 101.934 84.1343 100.637 84.1343H56.0238C54.727 84.1343 53.6758 83.0619 53.6758 81.739Z" fill="white"/>
<path fill-rule="evenodd" clip-rule="evenodd" d="M53.4062 93.8953C53.4062 92.5724 54.4575 91.5 55.7543 91.5H100.367C101.664 91.5 102.715 92.5724 102.715 93.8953C102.715 95.2182 101.664 96.2906 100.367 96.2906H55.7543C54.4575 96.2906 53.4062 95.2182 53.4062 93.8953Z" fill="white"/>
<path fill-rule="evenodd" clip-rule="evenodd" d="M53.4062 93.8953C53.4062 92.5724 54.4575 91.5 55.7543 91.5H100.367C101.664 91.5 102.715 92.5724 102.715 93.8953C102.715 95.2182 101.664 96.2906 100.367 96.2906H55.7543C54.4575 96.2906 53.4062 95.2182 53.4062 93.8953Z" fill="white"/>
</g>
<path d="M96.6695 246.689V249.414H72.4703V246.689H96.6695ZM94.5602 228.584V231.191H90.693V239.629H94.4723V242.207H74.5504V239.629H78.2711V231.191H74.4625V228.584H94.5602ZM81.523 239.629H87.4703V231.191H81.523V239.629ZM121.997 246.836V249.531H97.798V246.836H108.228V242.529H100.669V233.857H115.904V230.576H100.611V227.939H119.126V236.436H103.921V239.863H119.741V242.529H111.45V246.836H121.997ZM140.557 226.68V242.09H137.452V235.41H134.141V232.773H137.452V226.68H140.557ZM131.3 231.807C131.3 234.648 132.882 237.52 136.251 238.867L134.61 241.357C132.266 240.449 130.684 238.75 129.776 236.699C128.809 238.999 127.125 240.889 124.62 241.914L122.921 239.365C126.466 237.959 128.136 234.824 128.136 231.807V230.752H123.682V228.145H135.489V230.752H131.3V231.807ZM145.772 226.123V242.266H142.667V226.123H145.772ZM145.772 243.32V252.607H142.52V245.928H127.637V243.32H145.772ZM169.987 240.01V242.588H151.412V228.203H169.752V230.84H154.723V234.033H169.137V236.582H154.723V240.01H169.987ZM172.653 246.719V249.385H148.454V246.719H172.653ZM194.523 226.123V236.465H198.449V239.189H194.523V252.549H191.271V226.123H194.523ZM187.521 228.877C187.521 236.67 184.299 243.496 175.48 247.832L173.635 245.312C180.08 242.104 183.566 237.593 184.24 231.572H175.07V228.877H187.521ZM227.659 226.123V252.637H224.378V226.123H227.659ZM210.286 228.291V234.912H216.702V228.291H219.925V246.396H207.034V228.291H210.286ZM210.286 243.73H216.702V237.461H210.286V243.73ZM238.192 228.057C241.781 228.057 244.432 231.045 244.901 235.879H249.94V226.123H253.163V252.637H249.94V238.516H244.93C244.579 243.628 241.884 246.777 238.192 246.777C234.208 246.777 231.395 243.174 231.395 237.402C231.395 231.689 234.208 228.057 238.192 228.057ZM238.192 230.986C235.995 230.986 234.501 233.359 234.53 237.402C234.501 241.475 235.995 243.848 238.192 243.848C240.389 243.848 241.854 241.475 241.884 237.402C241.854 233.359 240.389 230.986 238.192 230.986ZM272.207 243.35C272.207 245.547 273.218 247.861 275.488 249.297C277.788 247.759 278.857 245.356 278.887 243.35V242.266H282.08V243.35C282.051 246.133 283.691 248.711 287.178 249.824L285.596 252.197C283.018 251.333 281.304 249.648 280.381 247.539C279.531 249.619 277.964 251.479 275.576 252.432C273.057 251.523 271.475 249.736 270.654 247.627C269.702 249.663 268.018 251.318 265.557 252.197L263.945 249.824C267.373 248.623 269.014 245.928 269.043 243.35V242.266H272.207V243.35ZM284.863 226.152V241.152H281.582V226.152H284.863ZM270.42 227.559C274.492 227.559 277.539 230.137 277.539 233.857C277.539 237.549 274.492 240.127 270.42 240.127C266.318 240.127 263.271 237.549 263.271 233.857C263.271 230.137 266.318 227.559 270.42 227.559ZM270.42 230.312C268.105 230.312 266.436 231.689 266.465 233.857C266.436 236.025 268.105 237.432 270.42 237.432C272.705 237.432 274.346 236.025 274.346 233.857C274.346 231.689 272.705 230.312 270.42 230.312ZM294.254 242.002V244.521H305.914V242.002H309.166V252.285H291.031V242.002H294.254ZM294.254 249.707H305.914V247.012H294.254V249.707ZM312.271 237.842V240.508H288.13V237.842H312.271ZM301.871 227.412C301.871 230.254 305.504 233.242 310.982 233.887L309.839 236.465C305.401 235.864 301.9 233.901 300.201 231.221C298.487 233.916 294.971 235.864 290.562 236.465L289.361 233.887C294.898 233.213 298.502 230.342 298.531 227.412V226.416H301.871V227.412ZM335.548 226.123V252.607H332.325V226.123H335.548ZM318.204 228.701V243.174C321.925 243.115 325.88 242.778 329.952 241.973L330.362 244.697C325.704 245.664 321.368 245.957 317.267 245.957H314.982V228.701H318.204ZM359.528 226.123V236.172H363.6V238.838H359.528V252.637H356.276V226.123H359.528ZM352.262 228.643V231.279H343.122V243.438C347.238 243.438 350.49 243.232 354.137 242.588L354.518 245.342C350.417 246.045 346.843 246.162 342.067 246.162H339.87V228.643H352.262ZM367.336 250.234C366.077 250.234 365.051 249.209 365.051 247.949C365.051 246.719 366.077 245.693 367.336 245.693C368.538 245.693 369.592 246.719 369.592 247.949C369.592 249.209 368.538 250.234 367.336 250.234Z" fill="#7F7F7F"/>
<path d="M73.3277 279.047V280.355H57.4293V279.047H73.3277ZM71.8043 266.977V268.246H69.0504V274.32H71.7652V275.57H58.8746V274.32H61.5894V268.246H58.8355V266.977H71.8043ZM63.1129 274.32H67.5465V268.246H63.1129V274.32ZM90.2129 279.145V280.434H74.3144V279.145H81.4629V275.863H76.3066V270.512H86.6973V267.777H76.2676V266.508H88.2012V271.762H77.8301V274.594H88.6113V275.863H82.9668V279.145H90.2129ZM102.567 265.609V275.688H101.082V270.98H98.4262V269.711H101.082V265.609H102.567ZM96.3363 268.949C96.3363 270.844 97.6059 272.895 99.8129 273.812L99.0121 274.984C97.3812 274.301 96.2387 273.002 95.6527 271.508C95.0375 273.197 93.8266 274.652 92.098 275.414L91.2777 274.203C93.5434 273.246 94.8519 271.02 94.8519 268.949V267.914H91.6098V266.645H99.4027V267.914H96.3363V268.949ZM105.946 265.219V275.844H104.481V265.219H105.946ZM105.946 276.605V282.582H104.442V277.855H94.2465V276.605H105.946ZM122.147 274.613V275.863H110.136V266.723H121.952V268.012H111.698V270.59H121.581V271.82H111.698V274.613H122.147ZM123.983 279.047V280.316H108.085V279.047H123.983ZM140.849 273.285V274.496H124.95V273.285H140.849ZM138.857 275.883V279.574H128.427V281.234H139.423V282.348H126.884V278.52H137.333V277.035H126.864V275.883H138.857ZM138.798 265.746V269.34H128.544V270.863H139.111V271.977H127.021V268.285H137.255V266.859H126.962V265.746H138.798ZM162.295 275.727V277.016H155.127V282.621H153.623V277.016H146.475V275.727H162.295ZM155.146 268.656C155.146 270.824 158.174 272.719 161.279 273.148L160.713 274.379C158.027 273.969 155.498 272.621 154.404 270.727C153.291 272.641 150.723 273.969 148.037 274.379L147.471 273.148C150.557 272.719 153.623 270.844 153.623 268.656V268.637H148.018V267.387H153.623V265.219H155.127V267.387H160.771V268.637H155.146V268.656ZM176.797 265.219V272.289H179.61V273.578H176.797V282.582H175.274V265.219H176.797ZM172.305 267.094C172.305 272.016 170 276.488 164.336 279.281L163.477 278.07C167.969 275.834 170.411 272.494 170.762 268.383H164.278V267.094H172.305ZM193.682 265.219V272.387H196.593V273.656H193.682V282.582H192.159V265.219H193.682ZM190.479 268.012V269.281H180.147V268.012H184.62V265.434H186.143V268.012H190.479ZM185.401 270.727C187.862 270.727 189.639 272.367 189.659 274.711C189.639 277.055 187.862 278.695 185.401 278.695C182.921 278.695 181.124 277.055 181.143 274.711C181.124 272.367 182.921 270.727 185.401 270.727ZM185.401 272.016C183.78 272.016 182.589 273.148 182.608 274.711C182.589 276.293 183.78 277.406 185.401 277.387C187.003 277.406 188.175 276.293 188.194 274.711C188.175 273.148 187.003 272.016 185.401 272.016ZM201.798 266.566C203.39 266.576 204.679 267.504 205.431 269.105H210.001V265.219H211.525V282.621H210.001V275.883H205.548C204.816 277.641 203.478 278.656 201.798 278.656C199.239 278.656 197.443 276.312 197.443 272.621C197.443 268.93 199.239 266.586 201.798 266.566ZM201.798 267.934C200.079 267.953 198.907 269.789 198.907 272.621C198.907 275.453 200.079 277.289 201.798 277.289C203.497 277.289 204.689 275.453 204.689 272.621C204.689 269.789 203.497 267.953 201.798 267.934ZM205.88 270.395C206.036 271.068 206.134 271.811 206.134 272.621C206.134 273.334 206.056 274.008 205.939 274.613H210.001V270.395H205.88ZM232.99 265.219V282.582H231.447V265.219H232.99ZM227.854 267.113C227.834 272.113 225.51 276.527 219.689 279.32L218.85 278.07C223.547 275.844 225.939 272.514 226.291 268.363H219.65V267.113H227.854ZM251.399 274.789V276.059H235.5V274.789H242.688V272.953H237.571V268.715H247.805V266.918H237.512V265.668H249.348V269.867H239.094V271.723H249.719V272.953H244.192V274.789H251.399ZM249.446 277.387V282.426H247.903V278.637H237.278V277.387H249.446ZM260.315 265.531C264.182 265.531 266.448 266.586 266.448 268.52C266.448 270.492 264.182 271.547 260.315 271.566C256.448 271.547 254.163 270.492 254.163 268.52C254.163 266.586 256.448 265.531 260.315 265.531ZM260.315 266.684C257.425 266.684 255.745 267.387 255.764 268.52C255.745 269.73 257.425 270.395 260.315 270.395C263.186 270.395 264.886 269.73 264.886 268.52C264.886 267.387 263.186 266.684 260.315 266.684ZM268.225 272.738V273.988H252.405V272.738H268.225ZM266.194 275.492V279.379H255.882V281.176H266.721V282.387H254.358V278.246H264.69V276.664H254.319V275.492H266.194ZM280.082 269.887C280.062 273.051 282.23 276.254 284.789 277.406L283.851 278.617C281.879 277.65 280.17 275.609 279.339 273.129C278.529 275.756 276.82 277.943 274.789 278.969L273.812 277.68C276.39 276.488 278.539 273.188 278.558 269.887V266.723H280.082V269.887ZM288.226 265.219V282.621H286.683V265.219H288.226ZM296.674 268.441C296.674 270.746 298.373 272.855 300.951 273.754L300.17 274.945C298.188 274.242 296.674 272.816 295.932 271.02C295.189 272.992 293.598 274.525 291.557 275.277L290.736 274.086C293.334 273.168 295.15 270.922 295.17 268.441V267.699H291.205V266.449H300.58V267.699H296.674V268.441ZM304.369 265.219V269.809H306.986V271.117H304.369V275.688H302.846V265.219H304.369ZM304.369 276.605V282.582H302.846V277.855H293.002V276.605H304.369ZM316.352 268.227V269.477H307.641V268.227H311.254V265.746H312.778V268.227H316.352ZM311.996 270.648C314.184 270.648 315.746 272.289 315.766 274.594C315.746 276.918 314.184 278.578 311.996 278.578C309.828 278.578 308.266 276.918 308.266 274.594C308.266 272.289 309.828 270.648 311.996 270.648ZM311.996 271.938C310.629 271.957 309.633 273.07 309.633 274.594C309.633 276.137 310.629 277.25 311.996 277.23C313.383 277.25 314.399 276.137 314.399 274.594C314.399 273.07 313.383 271.957 311.996 271.938ZM322.465 265.219V282.582H321V273.812H318.696V281.723H317.25V265.648H318.696V272.543H321V265.219H322.465ZM345.083 279.086V280.355H329.185V279.086H336.333V275.336H331.06V266.449H332.603V269.594H341.626V266.449H343.13V275.336H337.837V279.086H345.083ZM332.603 274.086H341.626V270.844H332.603V274.086ZM351.226 270.16C351.226 272.914 352.574 275.902 354.879 277.27L354 278.461C352.33 277.445 351.129 275.59 350.523 273.48C349.879 275.785 348.589 277.768 346.851 278.832L345.875 277.68C348.277 276.273 349.742 273.188 349.742 270.219V266.859H351.226V270.16ZM360.953 265.219V282.582H359.468V265.219H360.953ZM357.359 265.59V281.703H355.914V272.758H352.964V271.449H355.914V265.59H357.359ZM378.854 279.066V280.355H362.955V279.066H366.9V274.379C365.416 273.607 364.518 272.357 364.518 270.785C364.518 268.09 367.154 266.332 370.865 266.312C374.576 266.332 377.213 268.09 377.213 270.785C377.213 272.328 376.344 273.568 374.908 274.34V279.066H378.854ZM370.865 267.582C368.014 267.562 366.002 268.852 366.002 270.785C366.002 272.719 368.014 274.027 370.865 274.027C373.697 274.027 375.729 272.719 375.729 270.785C375.729 268.852 373.697 267.562 370.865 267.582ZM368.404 279.066H373.365V274.926C372.613 275.131 371.773 275.238 370.865 275.238C369.977 275.238 369.146 275.141 368.404 274.945V279.066ZM382.653 266.859L382.516 277.016H380.875L380.739 266.859H382.653ZM381.696 281.117C381.012 281.117 380.426 280.551 380.446 279.848C380.426 279.164 381.012 278.598 381.696 278.598C382.379 278.598 382.946 279.164 382.946 279.848C382.946 280.551 382.379 281.117 381.696 281.117Z" fill="#7F7F7F"/>
<path d="M191 153.5H254" stroke="#DCDCDC" stroke-width="4" stroke-linecap="round"/>
<path d="M222.5 122L222.5 185" stroke="#DCDCDC" stroke-width="4" stroke-linecap="round"/>
<defs>
<filter id="filter0_d_1170_14236" x="0.421297" y="0.940828" width="443.185" height="354.142" filterUnits="userSpaceOnUse" color-interpolation-filters="sRGB">
<feFlood flood-opacity="0" result="BackgroundImageFix"/>
<feColorMatrix in="SourceAlpha" type="matrix" values="0 0 0 0 0 0 0 0 0 0 0 0 0 0 0 0 0 0 127 0" result="hardAlpha"/>
<feOffset dx="1.01183" dy="1.01183"/>
<feGaussianBlur stdDeviation="3.0355"/>
<feComposite in2="hardAlpha" operator="out"/>
<feColorMatrix type="matrix" values="0 0 0 0 0 0 0 0 0 0 0 0 0 0 0 0 0 0 0.1 0"/>
<feBlend mode="normal" in2="BackgroundImageFix" result="effect1_dropShadow_1170_14236"/>
<feBlend mode="normal" in="SourceGraphic" in2="effect1_dropShadow_1170_14236" result="shape"/>
</filter>
</defs>
</svg>
