<svg width="126" height="126" viewBox="0 0 126 126" fill="none" xmlns="http://www.w3.org/2000/svg">
<circle cx="63" cy="63" r="63" fill="#DCDCDC"/>
<path fill-rule="evenodd" clip-rule="evenodd" d="M26.0742 45.2888C26.0742 43.3646 27.6067 41.8047 29.4972 41.8047H60.3037C62.1941 41.8047 63.7266 43.3646 63.7266 45.2888C63.7266 47.213 62.1941 48.7728 60.3037 48.7728H29.4972C27.6067 48.7728 26.0742 47.213 26.0742 45.2888ZM26.0742 62.7091C26.0742 60.7849 27.6067 59.225 29.4972 59.225H94.5332C96.4236 59.225 97.9561 60.7849 97.9561 62.7091C97.9561 64.6333 96.4236 66.1932 94.5332 66.1932H29.4972C27.6067 66.1932 26.0742 64.6333 26.0742 62.7091Z" fill="white"/>
<path fill-rule="evenodd" clip-rule="evenodd" d="M26.0742 45.2888C26.0742 43.3646 27.6067 41.8047 29.4972 41.8047H60.3037C62.1941 41.8047 63.7266 43.3646 63.7266 45.2888C63.7266 47.213 62.1941 48.7728 60.3037 48.7728H29.4972C27.6067 48.7728 26.0742 47.213 26.0742 45.2888ZM26.0742 62.7091C26.0742 60.7849 27.6067 59.225 29.4972 59.225H94.5332C96.4236 59.225 97.9561 60.7849 97.9561 62.7091C97.9561 64.6333 96.4236 66.1932 94.5332 66.1932H29.4972C27.6067 66.1932 26.0742 64.6333 26.0742 62.7091Z" fill="white"/>
<path fill-rule="evenodd" clip-rule="evenodd" d="M25.6836 80.3903C25.6836 78.4661 27.2161 76.9062 29.1065 76.9062H94.1425C96.033 76.9062 97.5655 78.4661 97.5655 80.3903C97.5655 82.3145 96.033 83.8744 94.1425 83.8744H29.1065C27.2161 83.8744 25.6836 82.3145 25.6836 80.3903Z" fill="white"/>
<path fill-rule="evenodd" clip-rule="evenodd" d="M25.6836 80.3903C25.6836 78.4661 27.2161 76.9062 29.1065 76.9062H94.1425C96.033 76.9062 97.5655 78.4661 97.5655 80.3903C97.5655 82.3145 96.033 83.8744 94.1425 83.8744H29.1065C27.2161 83.8744 25.6836 82.3145 25.6836 80.3903Z" fill="white"/>
</svg>
