<svg width="20" height="20" viewBox="0 0 20 20" fill="none" xmlns="http://www.w3.org/2000/svg">
<path fill-rule="evenodd" clip-rule="evenodd" d="M17.5723 9.28613C17.5723 13.8624 13.8624 17.5723 9.28613 17.5723C4.70983 17.5723 1 13.8624 1 9.28613C1 4.70983 4.70983 1 9.28613 1C13.8624 1 17.5723 4.70983 17.5723 9.28613ZM15.4884 16.1974C13.8441 17.674 11.67 18.5723 9.28613 18.5723C4.15754 18.5723 0 14.4147 0 9.28613C0 4.15754 4.15754 0 9.28613 0C14.4147 0 18.5723 4.15754 18.5723 9.28613C18.5723 11.671 17.6732 13.8459 16.1956 15.4904L19.853 19.1478C20.0482 19.3431 20.0482 19.6597 19.853 19.8549C19.6577 20.0502 19.3411 20.0502 19.1459 19.8549L15.4884 16.1974Z" fill="black"/>
</svg>
